<svg viewBox="64 0 896 1024" xmlns="http://www.w3.org/2000/svg"><path d="m960 256.5c0 11.333-1.75 22.417-5.25 33.25s-8.417 20.833-14.75 30-13.917 17.25-22.75 24.25-18.583 12.5-29.25 16.5l-184 70v153.5c0 1 2.333 8 7 21s10.583 29.25 17.75 48.75 15 40.833 23.5 64 16.667 45.333 24.5 66.5 14.667 39.917 20.5 56.25 9.75 27.333 11.75 33c2 6.333 3.667 12.667 5 19s2 12.833 2 19.5c0 15.667-2.917 30.25-8.75 43.75s-13.917 25.333-24.25 35.5c-10.333 10.17-22.333 18.17-36 24s-28.167 8.75-43.5 8.75c-11.667 0-22.917-1.75-33.75-5.25s-20.917-8.5-30.25-15-17.5-14.333-24.5-23.5-12.5-19.25-16.5-30.25l-86.5-238.5-87 238.5c-4 11.333-9.5 21.5-16.5 30.5s-15.083 16.75-24.25 23.25-19.167 11.5-30 15-22.25 5.25-34.25 5.25c-15.333 0-29.833-2.92-43.5-8.75s-25.583-13.83-35.75-24c-10.167-10.167-18.167-22.083-24-35.75s-8.75-28.167-8.75-43.5c0-6.667 0.667-13.167 2-19.5s3-12.667 5-19c1.333-4.333 3.917-11.667 7.75-22s8.333-22.583 13.5-36.75 10.833-29.583 17-46.25 12.333-33.417 18.5-50.25 12.167-33.167 18-49 11-29.917 15.5-42.25 8.083-22.333 10.75-30 4-11.833 4-12.5v-154l-184-70c-11-4-20.917-9.583-29.75-16.75-8.8333-7.167-16.333-15.25-22.5-24.25s-11-18.917-14.5-29.75-5.25-22.083-5.25-33.75c0-15.333 2.9167-29.833 8.75-43.5s13.833-25.583 24-35.75c10.167-10.167 22-18.167 35.5-24s28.083-8.75 43.75-8.75c13.667 0 27 2.5 40 7.5l142.5 54.5c-2.333-8-4-16.167-5-24.5s-1.5-16.667-1.5-25c0-21.667 4.333-42 13-61 8.667-19 20.333-35.583 35-49.75 14.667-14.167 31.667-25.333 51-33.5 19.333-8.1666 39.667-12.25 61-12.25s41.667 4.0834 61 12.25c19.333 8.1667 36.333 19.333 51 33.5 14.667 14.167 26.333 30.75 35 49.75 8.667 19 13 39.333 13 61 0 8.333-0.5 16.667-1.5 25s-2.833 16.5-5.5 24.5l143-54.5c13-5 26.333-7.5 40-7.5 15.333 0 29.833 2.917 43.5 8.75s25.583 13.917 35.75 24.25 18.167 22.333 24 36 8.75 28.167 8.75 43.5zm-544-96.5c0 13 2.5 25.333 7.5 37s11.917 21.917 20.75 30.75 19.083 15.75 30.75 20.75 24 7.5 37 7.5 25.333-2.5 37-7.5 21.917-11.917 30.75-20.75 15.75-19.083 20.75-30.75 7.5-24 7.5-37-2.5-25.333-7.5-37-11.917-21.917-20.75-30.75c-8.833-8.8333-19.083-15.75-30.75-20.75-11.667-4.9999-24-7.4999-37-7.5-13 1e-4 -25.333 2.5001-37 7.5-11.667 5.0001-21.917 11.917-30.75 20.75-8.833 8.833-15.75 19.083-20.75 30.75s-7.5 24-7.5 37zm480 95.5c0-6.333-1.25-12.417-3.75-18.25s-6-10.917-10.5-15.25-9.667-7.75-15.5-10.25-11.917-3.75-18.25-3.75c-6 0-11.667 1-17 3l-268 102c-8 3-16.333 5.333-25 7s-17.333 2.5-26 2.5c-17 0-34.167-3.167-51.5-9.5l-267.5-102c-5.667-2-11.333-3-17-3-13.667 0-25.083 4.583-34.25 13.75s-13.75 20.583-13.75 34.25c0 10 2.75 19.083 8.25 27.25s13.083 14.083 22.75 17.75l204.5 77.5c6.333 2.333 11.333 6.25 15 11.75s5.5 11.583 5.5 18.25v181.5c0 4.333-0.667 8-2 11l-107 294.5c-2 5.667-3 11.167-3 16.5 0 13.333 4.667 24.667 14 34s20.667 14 34 14c10 0 19.083-2.833 27.25-8.5s14.083-13.333 17.75-23l87-238.5c4.667-13.333 12.25-23.75 22.75-31.25s22.917-11.25 37.25-11.25 26.75 3.75 37.25 11.25 18.083 17.917 22.75 31.25l87 238.5c3.667 9.667 9.5 17.333 17.5 23s17.167 8.5 27.5 8.5c13.333 0 24.667-4.667 34-14s14-20.667 14-34c0-5.333-1-10.833-3-16.5l-107-294.5c-1.333-3-2-6.667-2-11v-181.5c0-6.667 1.833-12.75 5.5-18.25s8.667-9.417 15-11.75l204.5-77.5c9.667-3.667 17.25-9.583 22.75-17.75s8.25-17.417 8.25-27.75z" fill="#fff"></path></svg>
