<?xml version="1.0" encoding="UTF-8"?>
<svg width="48" height="48" version="1.1" viewBox="0 0 48 48" xml:space="preserve" xmlns="http://www.w3.org/2000/svg"><path d="m27.453 3.0332c1.4499-1.2061 3.7567-0.25256 3.7567 1.553v38.827c0 1.8056-2.3067 2.7592-3.7567 1.553l-10.561-8.7846c-1.1217-0.93305-2.576-1.4492-4.0836-1.4492h-6.0514c-3.7316 0-6.7567-2.8031-6.7567-6.2609v-8.9441c0-3.4578 3.0251-6.2609 6.7567-6.2609h6.0514c1.5076 0 2.9619-0.51613 4.0836-1.4493zm0.53925 3.5578-8.9508 7.4454c-1.7123 1.4243-3.9321 2.212-6.233 2.212h-6.0514c-1.9546 0-3.5392 1.4683-3.5392 3.2795v8.9441c0 1.8111 1.5846 3.2795 3.5392 3.2795h6.0514c2.3009 0 4.5207 0.7878 6.233 2.2119l8.9508 7.4454z" fill="#fff" stroke-width="1.2389"/><path d="m38.862 5.3911c0.56276-0.60096 1.5061-0.63195 2.107-0.069251l0.0011 1e-3s-0.40284-0.40356 0.01169 0.010995l0.02206 0.021168c0.01777 0.017161 0.04162 0.040427 0.0712 0.069788 0.05903 0.058697 0.14072 0.14177 0.24173 0.24903 0.20214 0.21446 0.48226 0.52597 0.81391 0.93303 0.66293 0.8136 1.5349 2.0123 2.4036 3.5838 1.7393 3.1465 3.4657 7.7902 3.4657 13.809s-1.7263 10.663-3.4657 13.809c-0.86865 1.5714-1.7406 2.7702-2.4036 3.5838-0.33165 0.40702-0.61178 0.71851-0.81391 0.93305-0.02934 0.03113-0.05712 0.06034-0.08324 0.08741-0.06344 0.06607-0.11663 0.11997-0.15849 0.16159-0.02958 0.02934-0.05343 0.05259-0.0712 0.06976l-0.02206 0.02111-0.0075 0.0072-3e-3 0.0027-0.0012 0.0012s0.15968-0.1598 0.26343-0.26355c0.12689-0.12677 0.17006-0.17006-0.2645 0.26451-0.60092 0.56276-1.5442 0.53176-2.107-0.06929-0.56169-0.59985-0.53176-1.541 0.06619-2.104l0.0021-0.0021 0.0038-0.0036c7e-3 -0.0068 0.01992-0.01944 0.03852-0.0378 0.03697-0.03685 0.09624-0.09695 0.17447-0.17996 0.15658-0.16612 0.38901-0.42383 0.67224-0.77146 0.56682-0.69573 1.3346-1.7479 2.1057-3.1429 1.5402-2.7864 3.0935-6.9377 3.0935-12.367s-1.5533-9.5807-3.0935-12.367c-0.7711-1.395-1.5389-2.4472-2.1057-3.1429-0.28323-0.34751-0.51566-0.60534-0.67224-0.77146-0.07823-0.083-0.1375-0.14311-0.17447-0.17996-0.0186-0.01836-0.03148-0.03101-0.03852-0.0378l-0.0038-0.0036-0.0021-2e-3c-0.59796-0.56313-0.6279-1.5043-0.066206-2.1042zm-4.7743 7.1598c0.56014-0.60331 1.5033-0.63825 2.1066-0.07799 2.4e-4 2.39e-4 9.54e-4 8.35e-4 9.54e-4 8.35e-4l0.0011 9.54e-4 0.0024 0.0023 0.0058 0.0055 0.01634 0.0155c0.01276 0.01216 0.02958 0.02826 0.04985 0.0483 0.04067 0.03983 0.09588 0.09516 0.1635 0.16552 0.13524 0.14084 0.32068 0.34238 0.53939 0.60271 0.43659 0.51983 1.0098 1.2783 1.581 2.2574 1.142 1.9577 2.29 4.8238 2.29 8.4282 0 3.6042-1.1481 6.4704-2.29 8.4281-0.57111 0.97908-1.1444 1.7375-1.581 2.2574-0.21871 0.26033-0.40415 0.46199-0.53939 0.60271-0.06762 0.07048-0.12283 0.12569-0.1635 0.16564l-0.02325 0.02266-0.02659 0.02564-0.01634 0.01538-0.0058 0.0055-0.0033 0.0031-0.0011 0.0011c-0.60331 0.56014-1.5465 0.5252-2.1066-0.07811-0.55906-0.602-0.52544-1.5424 0.07406-2.1031l2e-3 -0.0018 0.0192-0.01872c0.02051-0.02015 0.05498-0.0545 0.10149-0.10292 0.09302-0.09672 0.23362-0.24912 0.4063-0.45472 0.34596-0.41178 0.81618-1.0321 1.2885-1.842 0.94497-1.6198 1.884-3.9712 1.884-6.9258 0-2.9548-0.93901-5.306-1.884-6.9259-0.47237-0.80974-0.94259-1.4302-1.2885-1.842-0.17268-0.20548-0.31328-0.35788-0.4063-0.45472-0.04651-0.04842-0.08097-0.08276-0.10149-0.10292l-0.01991-0.01932 9.54e-4 9.54e-4c-0.60247-0.56026-0.63634-1.5022-0.07632-2.1052zm6.8941-7.2171-0.01169-0.010995 0.0012 0.00114 3e-3 0.00271zm-4.7875 7.1391 0.07644 0.07334c-0.11353-0.10626-0.08074-0.07716-0.07644-0.07334z" fill="#fff" stroke-width="1.1925"/></svg>
