<svg version="1.1" viewBox="0 141 1024 753" xmlns="http://www.w3.org/2000/svg"><path d="m0 512c0-34.333 3.25-68 9.75-101s16.417-65.333 29.75-97c6-14 13-28.5 21-43.5s16.75-29.75 26.25-44.25 19.583-28.333 30.25-41.5 21.833-24.917 33.5-35.25c3.333-3 6.5-5.25 9.5-6.75s6.833-2.25 11.5-2.25c9 0 16.5 3.333 22.5 10s9 14.333 9 23c0 5.333-0.833 9.75-2.5 13.25s-4.167 7.083-7.5 10.75c-7.667 8.667-15.167 17-22.5 25s-14.333 16.667-21 26c-28 38.333-49.25 79.917-63.75 124.75s-21.75 91.083-21.75 138.75c0 30.667 3 60.917 9 90.75s15.167 58.917 27.5 87.25c19 44.333 44.667 84.333 77 120 4 4.667 8.167 9 12.5 13s8.5 8.333 12.5 13c3.667 4 6.417 7.833 8.25 11.5s2.75 8.333 2.75 14c0 9-3.167 16.5-9.5 22.5s-13.833 9-22.5 9c-7.333 0-14-2.5-20-7.5-11.667-9.333-23.25-20.833-34.75-34.5s-22.5-28.083-33-43.25-20.167-30.583-29-46.25-16.25-30.333-22.25-44c-14.333-32.667-25-66.167-32-100.5s-10.5-69.333-10.5-105zm842.5 381c-8.667 0-16.167-3-22.5-9s-9.5-13.5-9.5-22.5c0-5.667 0.917-10.333 2.75-14s4.583-7.5 8.25-11.5c4-4.667 8.167-9 12.5-13s8.5-8.333 12.5-13c32.333-35.667 58-75.667 77-120 12.333-28.333 21.5-57.417 27.5-87.25s9-60.083 9-90.75c0-47.667-7.25-93.917-21.75-138.75s-35.75-86.417-63.75-124.75c-6.667-9.333-13.667-18-21-26s-14.833-16.333-22.5-25c-3.333-3.667-5.833-7.25-7.5-10.75s-2.5-7.917-2.5-13.25c0-8.667 3-16.333 9-23s13.5-10 22.5-10c4.667 0 8.5 0.75 11.5 2.25s6.167 3.75 9.5 6.75c11.333 10 22.417 21.583 33.25 34.75s20.917 27 30.25 41.5 18 29.333 26 44.5 15 29.75 21 43.75c13.333 31.333 23.33 63.583 30 96.75s10 66.917 10 101.25c0 71.667-14.33 140.17-43 205.5-6 13.667-13.333 28.333-22 44s-18.25 31.083-28.75 46.25-21.5 29.583-33 43.25-23.083 25.167-34.75 34.5c-6 5-12.667 7.5-20 7.5zm-682.5-381c0-22.333 2.333-45.083 7-68.25s11.417-45.667 20.25-67.5 19.75-42.583 32.75-62.25 27.833-37 44.5-52c3-2.667 6-4.75 9-6.25s6.667-2.25 11-2.25c8.667 0 16.083 3.25 22.25 9.75s9.25 14.083 9.25 22.75c0 5.333-0.917 9.917-2.75 13.75s-4.417 7.75-7.75 11.75c-13 15.333-24.583 30.5-34.75 45.5s-18.75 30.583-25.75 46.75-12.25 33.083-15.75 50.75-5.25 36.833-5.25 57.5c0 32 5.167 63.083 15.5 93.25s25.333 57.75 45 82.75c4.667 6 9.5 11.667 14.5 17s10.167 10.833 15.5 16.5c3.667 4 6.5 8.083 8.5 12.25s3 9.083 3 14.75c0 8.667-3 16.167-9 22.5s-13.333 9.5-22 9.5c-6.667 0-13-2.5-19-7.5-18.333-15.333-34.667-33.167-49-53.5s-26.5-41.917-36.5-64.75-17.583-46.417-22.75-70.75-7.75-48.333-7.75-72zm569 268.5c-8.667 0-16-3.167-22-9.5s-9-13.833-9-22.5c0-5.667 1-10.583 3-14.75s4.833-8.25 8.5-12.25c5.333-5.667 10.5-11.167 15.5-16.5s9.833-11 14.5-17c19.667-25 34.667-52.583 45-82.75s15.5-61.25 15.5-93.25c0-20.667-1.75-39.833-5.25-57.5s-8.75-34.583-15.75-50.75-15.583-31.75-25.75-46.75-21.75-30.167-34.75-45.5c-3.333-4-5.917-7.917-7.75-11.75s-2.75-8.417-2.75-13.75c0-8.667 3.083-16.25 9.25-22.75s13.583-9.75 22.25-9.75c4.333 0 8 0.75 11 2.25s6 3.583 9 6.25c16.667 15 31.5 32.333 44.5 52s23.917 40.417 32.75 62.25 15.583 44.333 20.25 67.5 7 45.917 7 68.25c0 23.667-2.583 47.667-7.75 72s-12.75 47.917-22.75 70.75-22.167 44.417-36.5 64.75-30.667 38.167-49 53.5c-3 2.667-5.917 4.583-8.75 5.75s-6.25 1.75-10.25 1.75z" fill="#fff"/><path d="m361.76 517.5c0-20.658 4.0697-40.064 12.207-58.219 8.1375-18.155 18.936-33.96 32.396-47.42s29.265-24.258 47.42-32.396c18.155-8.1374 37.56-12.207 58.219-12.207s40.064 4.0697 58.219 12.207c18.155 8.1375 33.96 18.936 47.42 32.396s24.258 29.265 32.396 47.42c8.1375 18.155 12.207 37.56 12.207 58.219s-4.0697 40.064-12.207 58.219c-8.1374 18.155-18.936 33.96-32.396 47.42s-29.265 24.258-47.42 32.396c-18.155 8.1375-37.56 12.207-58.219 12.207-20.658 0-40.064-4.0697-58.219-12.207-18.155-8.1374-33.96-18.936-47.42-32.396s-24.258-29.265-32.396-47.42c-8.1374-18.155-12.207-37.56-12.207-58.219z" fill="#fff" stroke-width="1.878"/></svg>
