<svg viewBox="0 0 1024 1024" xmlns="http://www.w3.org/2000/svg"><path d="m898.5 0c16.667 0 32.583 3.4167 47.75 10.25 15.167 6.8334 28.5 16 40 27.5 11.5 11.5 20.67 24.833 27.5 40 6.83 15.167 10.25 31.083 10.25 47.75v581c0 17.333-3.5 33.583-10.5 48.75s-16.333 28.417-28 39.75-25.25 20.333-40.75 27-31.75 10-48.75 10h-192v128h96c8.667 0 16.167 3.167 22.5 9.5s9.5 13.833 9.5 22.5c0 8.67-3.167 16.17-9.5 22.5s-13.833 9.5-22.5 9.5h-576c-8.667 0-16.167-3.17-22.5-9.5s-9.5-13.83-9.5-22.5c0-8.667 3.167-16.167 9.5-22.5s13.833-9.5 22.5-9.5h96v-128h-194.5c-16.667 0-32.583-3.417-47.75-10.25s-28.5-16-40-27.5-20.667-24.833-27.5-40c-6.8333-15.167-10.25-31.083-10.25-47.75v-581c0-16.667 3.4167-32.583 10.25-47.75 6.8333-15.167 16-28.5 27.5-40 11.5-11.5 24.833-20.667 40-27.5 15.167-6.8333 31.083-10.25 47.75-10.25zm61.5 128c0-8.667-1.667-16.917-5-24.75-3.333-7.8333-7.917-14.667-13.75-20.5-5.833-5.8333-12.667-10.417-20.5-13.75-7.833-3.3333-16.083-4.9999-24.75-5h-768c-9 1e-4 -17.333 1.6667-25 5-7.6667 3.3334-14.417 7.9167-20.25 13.75-5.8333 5.8334-10.417 12.583-13.75 20.25-3.3333 7.667-5 16-5 25v576c0 9 1.6667 17.417 5 25.25s7.8333 14.583 13.5 20.25 12.417 10.167 20.25 13.5c7.833 3.333 16.25 5 25.25 5h768c9 0 17.333-1.667 25-5s14.417-7.917 20.25-13.75 10.417-12.583 13.75-20.25 5-16 5-25zm-576 832h256v-128h-256z" fill="#fff"></path></svg>
