<svg viewBox="64 64 896 896" xmlns="http://www.w3.org/2000/svg"><path d="m896 928v-832c0-8.6666 3.167-16.167 9.5-22.5 6.333-6.3333 13.833-9.4999 22.5-9.5 8.667 1e-4 16.167 3.1667 22.5 9.5 6.333 6.3334 9.5 13.833 9.5 22.5v832c0 8.667-3.167 16.167-9.5 22.5s-13.833 9.5-22.5 9.5-16.167-3.167-22.5-9.5-9.5-13.833-9.5-22.5zm-832-57v-718c0-11 2.1667-21.417 6.5-31.25s10.083-18.333 17.25-25.5c7.1667-7.1666 15.667-12.833 25.5-17 9.833-4.1666 20.25-6.2499 31.25-6.25 15.333 1e-4 29.833 4.5001 43.5 13.5l544.5 358.5c11.333 7.333 20.167 16.917 26.5 28.75s9.5 24.583 9.5 38.25-3.167 26.417-9.5 38.25-15.167 21.417-26.5 28.75l-544.5 358.5c-6.667 4.333-13.75 7.667-21.25 10s-15.25 3.5-23.25 3.5c-11 0-21.25-2.167-30.75-6.5s-17.917-10.083-25.25-17.25-13.083-15.583-17.25-25.25-6.25-20-6.25-31zm640.5-359c0-2.667-0.583-5.167-1.75-7.5s-2.917-4.333-5.25-6l-544.5-359c-1-0.667-2.417-1.25-4.25-1.75s-3.417-0.75-4.75-0.75c-4.333 0-8.083 1.583-11.25 4.75s-4.75 6.917-4.75 11.25v718c0 4.667 1.583 8.5 4.75 11.5s7.083 4.5 11.75 4.5c2.667 0 5.333-0.833 8-2.5l545-359c2.333-1.667 4.083-3.667 5.25-6s1.75-4.833 1.75-7.5z" fill="#fff"></path></svg>
