<svg width="24" height="24" fill="none" viewBox="0 0 24 24" xmlns="http://www.w3.org/2000/svg"><path d="m12 4.75c-4.0041 0-7.25 3.2459-7.25 7.25 0 4.0041 3.2459 7.25 7.25 7.25 4.0041 0 7.25-3.2459 7.25-7.25 0-0.2856-0.0165-0.5674-0.0486-0.8444-0.0681-0.5871 0.3579-1.1556 0.949-1.1556 0.5156 0 0.9689 0.3581 1.0313 0.8699 0.0451 0.3704 0.0683 0.7475 0.0683 1.1301 0 5.1086-4.1414 9.25-9.25 9.25-5.1086 0-9.25-4.1414-9.25-9.25 0-5.1086 4.1414-9.25 9.25-9.25 2.1731 0 4.1712 0.74939 5.75 2.0038v-0.50385c0-0.55228 0.4477-1 1-1s1 0.44772 1 1v2.6983c0.0112 0.0172 0.0224 0.03443 0.0335 0.05171h-0.0335v0.25c0 0.55228-0.4477 1-1 1h-3c-0.5523 0-1-0.44772-1-1s0.4477-1 1-1h0.6665c-1.2229-0.94068-2.7544-1.5-4.4165-1.5z" fill="#fff"/></svg>
