<svg viewBox="64 64 896 896" xmlns="http://www.w3.org/2000/svg"><path d="m220.5 960c-21 0-41-4.25-60-12.75s-35.583-19.833-49.75-34c-14.167-14.167-25.5-30.75-34-49.75s-12.75-39-12.75-60v-583c0-21 4.25-41 12.75-60s19.833-35.583 34-49.75c14.167-14.167 30.75-25.5 49.75-34 19-8.4999 39-12.75 60-12.75h583c21 1e-4 41 4.2501 60 12.75 19 8.5001 35.583 19.833 49.75 34 14.167 14.167 25.5 30.75 34 49.75s12.75 39 12.75 60v583c0 21-4.25 41-12.75 60s-19.833 35.583-34 49.75-30.75 25.5-49.75 34-39 12.75-60 12.75zm579.5-64c13 0 25.333-2.5 37-7.5s21.917-11.917 30.75-20.75 15.75-19.083 20.75-30.75 7.5-24 7.5-37v-576c0-13-2.5-25.333-7.5-37s-11.917-21.917-20.75-30.75-19.083-15.75-30.75-20.75-24-7.5-37-7.5h-576c-13 0-25.333 2.5-37 7.5s-21.917 11.917-30.75 20.75-15.75 19.083-20.75 30.75-7.5 24-7.5 37v576c0 13 2.5 25.333 7.5 37s11.917 21.917 20.75 30.75 19.083 15.75 30.75 20.75 24 7.5 37 7.5z" fill="#fff"></path></svg>
