<svg width="16" height="14" viewBox="0 0 16 14" fill="none" xmlns="http://www.w3.org/2000/svg">
<path d="M5 10.0078L5 3.99219C5 3.85417 5.02604 3.72526 5.07812 3.60547C5.13281 3.48568 5.20443 3.38151 5.29297 3.29297C5.38411 3.20182 5.48958 3.13021 5.60938 3.07812C5.73177 3.02604 5.86198 3 6 3C6.20573 3 6.39583 3.0599 6.57031 3.17969L10.3555 5.78125C10.5586 5.92187 10.7161 6.09896 10.8281 6.3125C10.9427 6.52604 11 6.75521 11 7C11 7.24479 10.9427 7.47396 10.8281 7.6875C10.7161 7.90104 10.5586 8.07812 10.3555 8.21875L6.57031 10.8203C6.39583 10.9401 6.20573 11 6 11C5.86198 11 5.73177 10.974 5.60938 10.9219C5.48958 10.8698 5.38411 10.7995 5.29297 10.7109C5.20443 10.6198 5.13281 10.5143 5.07813 10.3945C5.02604 10.2747 5 10.1458 5 10.0078Z" fill="white" fill-opacity="0.5442"/>
</svg>
