<svg width="16" height="14" fill="none" viewBox="0 0 16 14" xmlns="http://www.w3.org/2000/svg"><path d="m5 7c0-0.24479 0.05729-0.47396 0.17188-0.6875 0.11458-0.21615 0.27213-0.39323 0.47265-0.53125l3.7852-2.6016c0.08854-0.0599 0.17838-0.10417 0.26953-0.13282 0.09114-0.03125 0.1914-0.04687 0.30078-0.04687 0.1354 0 0.2643 0.02604 0.3867 0.07812 0.1224 0.05209 0.2279 0.1237 0.3164 0.21485 0.0912 0.08854 0.1628 0.19271 0.2149 0.3125 0.0547 0.11979 0.082 0.2487 0.082 0.38672v6.0156c0 0.138-0.0273 0.2669-0.082 0.3867-0.0521 0.1198-0.1237 0.2253-0.2149 0.3164-0.0885 0.0886-0.194 0.1589-0.3164 0.211s-0.2513 0.0781-0.3867 0.0781c-0.20573 0-0.39583-0.0599-0.57031-0.1797l-3.7852-2.6016c-0.20052-0.13802-0.35807-0.3138-0.47265-0.52734-0.11459-0.21615-0.17188-0.44662-0.17188-0.69141z" fill="#fff" fill-opacity=".5442"/></svg>
