<svg viewBox="0 128 1024 704" xmlns="http://www.w3.org/2000/svg"><path d="m125.5 832c-16.667 0-32.583-3.417-47.75-10.25s-28.5-16-40-27.5-20.667-24.833-27.5-40c-6.8333-15.167-10.25-31.083-10.25-47.75v-453c0-16.667 3.4167-32.583 10.25-47.75 6.8333-15.167 16-28.5 27.5-40s24.833-20.667 40-27.5 31.083-10.25 47.75-10.25h773c16.667 0 32.583 3.417 47.75 10.25s28.5 16 40 27.5 20.67 24.833 27.5 40 10.25 31.083 10.25 47.75v453c0 16.667-3.42 32.583-10.25 47.75s-16 28.5-27.5 40-24.833 20.667-40 27.5-31.083 10.25-47.75 10.25zm770.5-64c9 0 17.333-1.667 25-5s14.417-7.917 20.25-13.75 10.417-12.583 13.75-20.25 5-16 5-25v-448c0-8.667-1.667-16.917-5-24.75s-7.917-14.667-13.75-20.5-12.667-10.417-20.5-13.75-16.083-5-24.75-5h-768c-9 0-17.333 1.667-25 5-7.6667 3.333-14.417 7.917-20.25 13.75s-10.417 12.583-13.75 20.25-5 16-5 25v448c0 9 1.6667 17.417 5 25.25s7.8333 14.583 13.5 20.25 12.417 10.167 20.25 13.5c7.833 3.333 16.25 5 25.25 5zm-736-432c0-13.333 4.667-24.667 14-34s20.667-14 34-14 24.667 4.667 34 14 14 20.667 14 34-4.667 24.667-14 34-20.667 14-34 14-24.667-4.667-34-14-14-20.667-14-34zm192 0c0-13.333 4.667-24.667 14-34s20.667-14 34-14 24.667 4.667 34 14 14 20.667 14 34-4.667 24.667-14 34-20.667 14-34 14-24.667-4.667-34-14-14-20.667-14-34zm192 0c0-13.333 4.667-24.667 14-34s20.667-14 34-14 24.667 4.667 34 14 14 20.667 14 34-4.667 24.667-14 34-20.667 14-34 14-24.667-4.667-34-14-14-20.667-14-34zm192 0c0-13.333 4.667-24.667 14-34s20.667-14 34-14 24.667 4.667 34 14 14 20.667 14 34-4.667 24.667-14 34-20.667 14-34 14-24.667-4.667-34-14-14-20.667-14-34zm-448 192c0-13.333 4.667-24.667 14-34s20.667-14 34-14 24.667 4.667 34 14 14 20.667 14 34-4.667 24.667-14 34-20.667 14-34 14-24.667-4.667-34-14-14-20.667-14-34zm192 0c0-13.333 4.667-24.667 14-34s20.667-14 34-14 24.667 4.667 34 14 14 20.667 14 34-4.667 24.667-14 34-20.667 14-34 14-24.667-4.667-34-14-14-20.667-14-34zm192 0c0-13.333 4.667-24.667 14-34s20.667-14 34-14 24.667 4.667 34 14 14 20.667 14 34-4.667 24.667-14 34-20.667 14-34 14-24.667-4.667-34-14-14-20.667-14-34zm-448 176c-8.667 0-16.167-3.167-22.5-9.5s-9.5-13.833-9.5-22.5 3.167-16.167 9.5-22.5 13.833-9.5 22.5-9.5h576c8.667 0 16.167 3.167 22.5 9.5s9.5 13.833 9.5 22.5-3.167 16.167-9.5 22.5-13.833 9.5-22.5 9.5z" fill="#fff"></path></svg>
