<svg viewBox="0 64 1024 960" xmlns="http://www.w3.org/2000/svg"><path d="m1024 224c0 8.667-3.17 16.167-9.5 22.5s-13.83 9.5-22.5 9.5h-163c-3.667 18.333-10.417 35.333-20.25 51s-21.75 29.167-35.75 40.5-29.667 20.25-47 26.75-35.333 9.75-54 9.75-36.667-3.25-54-9.75-33-15.417-47-26.75-25.917-24.833-35.75-40.5-16.583-32.667-20.25-51h-483c-8.6667 0-16.167-3.167-22.5-9.5-6.3333-6.333-9.5-13.833-9.5-22.5s3.1667-16.167 9.5-22.5c6.3333-6.333 13.833-9.5 22.5-9.5h483c3.667-18.333 10.417-35.333 20.25-51s21.75-29.167 35.75-40.5c14-11.333 29.667-20.25 47-26.75 17.333-6.4999 35.333-9.7499 54-9.75 18.667 1e-4 36.667 3.2501 54 9.75 17.333 6.5001 33 15.417 47 26.75 14 11.333 25.917 24.833 35.75 40.5s16.583 32.667 20.25 51h163c8.67 0 16.17 3.167 22.5 9.5s9.5 13.833 9.5 22.5zm-256 0c0-13-2.5-25.333-7.5-37s-11.917-21.917-20.75-30.75-19.083-15.75-30.75-20.75-24-7.5-37-7.5-25.333 2.5-37 7.5-21.917 11.917-30.75 20.75-15.75 19.083-20.75 30.75-7.5 24-7.5 37 2.5 25.333 7.5 37 11.917 21.917 20.75 30.75 19.083 15.75 30.75 20.75 24 7.5 37 7.5 25.333-2.5 37-7.5 21.917-11.917 30.75-20.75 15.75-19.083 20.75-30.75 7.5-24 7.5-37zm224 576c0 26.333-2 52.5-6 78.5s-10.667 51.5-20 76.5c-2 5.667-4.583 12.417-7.75 20.25s-7 15.417-11.5 22.75c-4.5 7.33-9.583 13.5-15.25 18.5s-12.167 7.5-19.5 7.5c-9 0-16.583-3.08-22.75-9.25s-9.25-13.75-9.25-22.75c0-2.333 0.25-4.833 0.75-7.5s1.25-5 2.25-7c4.333-7.667 8.5-14.833 12.5-21.5s7.5-14.333 10.5-23c7.667-21.333 13.25-43.167 16.75-65.5s5.25-44.833 5.25-67.5-1.75-45.167-5.25-67.5-9.083-44.167-16.75-65.5c-4.667-13.333-11.167-26.667-19.5-40-2-3.333-3.583-6.25-4.75-8.75s-1.75-5.917-1.75-10.25c0-9 3.083-16.583 9.25-22.75s13.75-9.25 22.75-9.25c7.333 0 13.833 2.5 19.5 7.5s10.75 11.167 15.25 18.5 8.333 14.917 11.5 22.75 5.75 14.583 7.75 20.25c9.333 25 16 50.5 20 76.5s6 52.167 6 78.5zm-288-192v384c0 8.67-3.25 16.17-9.75 22.5s-14.083 9.5-22.75 9.5-16.167-3.17-22.5-9.5l-118.5-118.5h-50.5c-8.667 0-16.167-3.167-22.5-9.5s-9.5-13.833-9.5-22.5v-128c0-8.667 3.167-16.167 9.5-22.5s13.833-9.5 22.5-9.5h50.5l118.5-118.5c6.333-6.333 13.833-9.5 22.5-9.5s16.25 3.167 22.75 9.5 9.75 13.833 9.75 22.5zm160 192c0 10.667-0.917 22.25-2.75 34.75s-4.333 25.167-7.5 38-6.917 25.333-11.25 37.5-9 22.917-14 32.25c-2.667 5.333-6.583 9.583-11.75 12.75s-10.75 4.75-16.75 4.75c-8.667 0-16.167-3.167-22.5-9.5s-9.5-13.833-9.5-22.5c0-3 0.75-6.75 2.25-11.25s3.167-9.167 5-14 3.75-9.5 5.75-14 3.5-8.083 4.5-10.75c4.667-12 8.25-24.833 10.75-38.5s3.75-26.833 3.75-39.5c0-13.333-1.417-26.5-4.25-39.5s-6.25-25.833-10.25-38.5c-1-3-2.5-6.833-4.5-11.5s-3.917-9.333-5.75-14-3.5-9.25-5-13.75-2.25-8.083-2.25-10.75c0-8.667 3.167-16.167 9.5-22.5s13.833-9.5 22.5-9.5c6 0 11.583 1.583 16.75 4.75s9.083 7.417 11.75 12.75c5 9.333 9.667 20.083 14 32.25s8.083 24.667 11.25 37.5 5.667 25.583 7.5 38.25 2.75 24.167 2.75 34.5zm-512-32c8.667 0 16.167 3.167 22.5 9.5s9.5 13.833 9.5 22.5-3.167 16.167-9.5 22.5-13.833 9.5-22.5 9.5h-320c-8.6667 0-16.167-3.167-22.5-9.5-6.3333-6.333-9.5-13.833-9.5-22.5s3.1667-16.167 9.5-22.5c6.3333-6.333 13.833-9.5 22.5-9.5z" fill="#fff"></path></svg>
