<svg viewBox="112 432 800 160" xmlns="http://www.w3.org/2000/svg"><path d="m112 512c0-11 2.167-21.333 6.5-31s10.083-18.083 17.25-25.25 15.583-12.917 25.25-17.25 20-6.5 31-6.5 21.333 2.167 31 6.5 18.083 10.083 25.25 17.25 12.917 15.583 17.25 25.25 6.5 20 6.5 31-2.167 21.333-6.5 31-10.083 18.083-17.25 25.25-15.583 12.917-25.25 17.25-20 6.5-31 6.5-21.333-2.167-31-6.5-18.083-10.083-25.25-17.25-12.917-15.583-17.25-25.25-6.5-20-6.5-31zm320 0c0-11 2.167-21.333 6.5-31s10.083-18.083 17.25-25.25 15.583-12.917 25.25-17.25 20-6.5 31-6.5 21.333 2.167 31 6.5 18.083 10.083 25.25 17.25 12.917 15.583 17.25 25.25 6.5 20 6.5 31-2.167 21.333-6.5 31-10.083 18.083-17.25 25.25-15.583 12.917-25.25 17.25-20 6.5-31 6.5-21.333-2.167-31-6.5-18.083-10.083-25.25-17.25-12.917-15.583-17.25-25.25-6.5-20-6.5-31zm320 0c0-11 2.167-21.333 6.5-31s10.083-18.083 17.25-25.25 15.583-12.917 25.25-17.25 20-6.5 31-6.5 21.333 2.167 31 6.5 18.083 10.083 25.25 17.25 12.917 15.583 17.25 25.25 6.5 20 6.5 31-2.167 21.333-6.5 31-10.083 18.083-17.25 25.25-15.583 12.917-25.25 17.25-20 6.5-31 6.5-21.333-2.167-31-6.5-18.083-10.083-25.25-17.25-12.917-15.583-17.25-25.25-6.5-20-6.5-31z" fill="#fff"></path></svg>
