<svg viewBox="23 128 1002 768" xmlns="http://www.w3.org/2000/svg"><path d="m22.5 512c0-11.667 2.1667-23.167 6.5-34.5s10.5-21.333 18.5-30l242.5-267c15-16.667 32.833-29.583 53.5-38.75s42.333-13.75 65-13.75h459c21 0 41 4.25 60 12.75s35.583 19.833 49.75 34 25.5 30.75 34 49.75 12.75 39 12.75 60v455c0 21-4.25 41-12.75 60s-19.833 35.583-34 49.75-30.75 25.5-49.75 34-39 12.75-60 12.75h-459c-22.667 0-44.333-4.583-65-13.75s-38.5-22.083-53.5-38.75l-242.5-267c-8-8.667-14.167-18.667-18.5-30s-6.5-22.833-6.5-34.5zm841.5 320c13 0 25.333-2.5 37-7.5s21.917-11.917 30.75-20.75 15.75-19.083 20.75-30.75 7.5-24 7.5-37v-448c0-13-2.5-25.333-7.5-37s-11.917-21.917-20.75-30.75-19.083-15.75-30.75-20.75-24-7.5-37-7.5h-455.5c-13.333 0-26.25 2.833-38.75 8.5s-23.25 13.333-32.25 23l-242.5 267c-5.6667 6.333-8.5 13.5-8.5 21.5 0 7.667 2.8333 14.833 8.5 21.5l242.5 267c9 10 19.667 17.75 32 23.25s25.333 8.25 39 8.25zm-224-275-137.5 137.5c-6.333 6.333-13.833 9.5-22.5 9.5s-16.167-3.167-22.5-9.5-9.5-13.833-9.5-22.5 3.167-16.167 9.5-22.5l137.5-137.5-137.5-137.5c-6.333-6.333-9.5-13.833-9.5-22.5s3.167-16.167 9.5-22.5 13.833-9.5 22.5-9.5 16.167 3.167 22.5 9.5l137.5 137 137.5-137c6.333-6.333 13.833-9.5 22.5-9.5s16.167 3.167 22.5 9.5 9.5 13.833 9.5 22.5-3.167 16.167-9.5 22.5l-137 137.5 137 137.5c6.333 6.333 9.5 13.833 9.5 22.5s-3.167 16.167-9.5 22.5-13.833 9.5-22.5 9.5-16.167-3.167-22.5-9.5z" fill="#fff"></path></svg>
