<?xml version="1.0" encoding="UTF-8"?>
<svg width="24" height="24" fill="none" version="1.1" viewBox="0 0 24 24" xmlns="http://www.w3.org/2000/svg">
 <path d="m0.26359 0.2636c-0.31952 0.31952-0.34856 0.81952-0.087144 1.1718l0.087144 0.10094 4.8415 4.8415c-2.3064 1.6194-4.0302 4.038-4.7464 6.8994-0.1207 0.48216 0.17234 0.97092 0.65452 1.0916 0.48218 0.1206 0.97091-0.17232 1.0916-0.6546 0.63536-2.5381 2.2046-4.667 4.2962-6.0409l2.1716 2.1717c-0.84901 0.8658-1.3726 2.052-1.3726 3.3604 0 2.651 2.149 4.8 4.8 4.8 1.3085 0 2.4946-0.52356 3.3605-1.3726l7.1032 7.1034c0.35148 0.35148 0.92124 0.35148 1.2727 0 0.31956-0.31944 0.3486-0.81948 0.08712-1.1718l-0.08712-0.10092-7.3362-7.337 0.0014-0.0018-8.3391-8.3354 0.0015-0.00218-1.3599-1.3566-5.1677-5.167c-0.35147-0.35147-0.92133-0.35147-1.2728 0zm11.736 3.9364c-1.2004 0-2.3651 0.17768-3.4667 0.51l1.4844 1.4834c0.64296-0.12704 1.306-0.19343 1.9823-0.19343 4.7077 0 8.7719 3.2163 9.8965 7.7198 0.12048 0.48216 0.609 0.77544 1.0913 0.65508 0.48228-0.12048 0.77556-0.609 0.65508-1.0913-1.3236-5.3004-6.1043-9.0837-11.643-9.0837zm0.23364 4.2111 4.5616 4.5609c-0.12216-2.4683-2.0986-4.4428-4.5616-4.5609z" fill="#7f7f7f"/>
</svg>
