<svg width="24" height="24" fill="none" viewBox="0 0 24 24" xmlns="http://www.w3.org/2000/svg"><path d="m11.749 5.9998c1.3585 0 1.9526 0.89859 1.9997 2.3258l0.0031 0.18912v2.4864l2.8718 0.4222c0.112 0.0165 0.223 0.0398 0.3322 0.07 1.4076 0.3888 2.256 1.8041 1.9597 3.2138l-0.0411 0.1691-1.2271 4.4426c-0.1719 0.6225-0.671 1.0956-1.2927 1.2391l-0.1455 0.0272-3.061 0.4392c-0.7605 0.1092-1.4965-0.2902-1.8249-0.972l-0.0601-0.1401-0.2166-0.5717c-0.2461-0.6493-0.6513-1.2247-1.1766-1.6743l-0.20256-0.1627-1.5967-1.2014c-0.08358-0.0629-0.17254-0.1181-0.2658-0.165l-0.14296-0.0641-2.195-0.8678c-0.27356-0.1082-0.45863-0.3663-0.47332-0.66-0.03611-0.7226 0.48952-1.2463 1.4213-1.7122 0.71921-0.3596 1.7275-0.3299 3.0661 0.0434l0.27214 0.0793v-4.4501c0-1.5372 0.57835-2.5058 1.996-2.5058zm0-3.4998c3.1759 0 5.7504 2.5746 5.7504 5.7504 0 0.7933-0.1606 1.5491-0.4511 2.2366l0.1737 0.0424c-0.1489-0.0411-0.3002-0.073-0.453-0.0955l-1.2673-0.1858c0.3177-0.59555 0.4977-1.2756 0.4977-1.9977 0-2.3474-1.9029-4.2504-4.2504-4.2504-2.3474 0-4.2504 1.903-4.2504 4.2504 0 1.1787 0.47978 2.2453 1.2547 3.0153l-2.7e-4 0.415c-0.61362-0.1085-1.1681-0.1355-1.6718-0.072-0.68137-0.9444-1.0826-2.1045-1.0826-3.3583 0-3.1759 2.5746-5.7504 5.7504-5.7504z" fill="#fff"/></svg>
