<?xml version="1.0" encoding="UTF-8"?>
<svg width="32" height="32" fill="none" version="1.1" viewBox="0 0 32 32" xmlns="http://www.w3.org/2000/svg">
 <path d="m9.4915 7.322v2.1695h-1.6271c-2.0968 0-3.7966 1.6998-3.7966 3.7966v14.102c0 2.0968 1.6998 3.7966 3.7966 3.7966h16.271c2.0968 0 3.7966-1.6998 3.7966-3.7966v-14.102c0-2.0968-1.6998-3.7966-3.7966-3.7966h-1.6271v-2.1695c0-3.5945-2.914-6.5085-6.5085-6.5085s-6.5085 2.9139-6.5085 6.5085zm6.5085-4.339c2.3963 0 4.339 1.9426 4.339 4.339v2.1695h-8.678v-2.1695c0-2.3964 1.9427-4.339 4.339-4.339zm0 19.525c-1.1982 0-2.1695-0.97128-2.1695-2.1695s0.97128-2.1695 2.1695-2.1695 2.1695 0.97128 2.1695 2.1695-0.97128 2.1695-2.1695 2.1695z" fill="#fff" stroke="#fff" stroke-width="1.6271"/>
</svg>
