<?xml version="1.0" encoding="UTF-8"?>
<svg version="1.1" viewBox="64 64 896 896" xmlns="http://www.w3.org/2000/svg">
 <path d="m160 960c-13 0-25.333-2.5-37-7.5s-21.917-11.917-30.75-20.75c-8.8333-8.833-15.75-19.083-20.75-30.75s-7.5-24-7.5-37v-704c0-13 2.5-25.333 7.5-37s11.917-21.917 20.75-30.75c8.833-8.8333 19.083-15.75 30.75-20.75 11.667-4.9999 24-7.4999 37-7.5h128c13 1e-4 25.333 2.5001 37 7.5 11.667 5.0001 21.917 11.917 30.75 20.75 8.833 8.833 15.75 19.083 20.75 30.75s7.5 24 7.5 37v704c0 13-2.5 25.333-7.5 37s-11.917 21.917-20.75 30.75-19.083 15.75-30.75 20.75-24 7.5-37 7.5zm576 0c-13 0-25.333-2.5-37-7.5s-21.917-11.917-30.75-20.75-15.75-19.083-20.75-30.75-7.5-24-7.5-37v-704c0-13 2.5-25.333 7.5-37s11.917-21.917 20.75-30.75c8.833-8.8333 19.083-15.75 30.75-20.75 11.667-4.9999 24-7.4999 37-7.5h128c13 1e-4 25.333 2.5001 37 7.5 11.667 5.0001 21.917 11.917 30.75 20.75 8.833 8.833 15.75 19.083 20.75 30.75s7.5 24 7.5 37v704c0 13-2.5 25.333-7.5 37s-11.917 21.917-20.75 30.75-19.083 15.75-30.75 20.75-24 7.5-37 7.5z" fill="#fff"/>
</svg>
