<?xml version="1.0" encoding="UTF-8"?>
<svg width="48" height="48" version="1.1" viewBox="0 0 48 48" xml:space="preserve" xmlns="http://www.w3.org/2000/svg"><path d="m31.209 30.877-0.49137-1.6281-16.679-15.732c-0.62823-0.58201-1.8354-0.24703-1.8354-0.24703h-5.4467c-3.7316 0-6.7566 2.8024-6.7566 6.2593v8.9419c0 3.4569 3.025 6.2593 6.7566 6.2593h6.0513c1.5076 0 2.9618 0.51601 4.0836 1.4489l10.561 8.7824c1.45 1.2058 3.7567 0.25252 3.7567-1.5525zm0-8.4306-12.817-11.873 9.06-7.5343c1.4499-1.2058 3.7567-0.25249 3.7567 1.5526z" fill="#e4b320" stroke-width="1.2387"/><path d="m45.444 47.409c0.58206 0.58194 1.5256 0.58194 2.1077 0 0.58194-0.58206 0.58194-1.5256 0-2.1077l-44.709-44.709c-0.582-0.58201-1.5256-0.58201-2.1076 0-0.582 0.582-0.582 1.5256 0 2.1076l19.374 19.374zm-6.7723-15.203-2.2065-2.2065c0.75231-1.5429 1.389-3.5664 1.389-5.999 0-2.9539-0.93878-5.3047-1.8835-6.9242-0.47225-0.80954-0.94235-1.4297-1.2882-1.8416-0.17264-0.20542-0.3132-0.35779-0.4062-0.4546-0.0465-0.04829-0.08095-0.08274-0.10146-0.10277l-0.01991-0.01931 9.54e-4 8.34e-4c-0.60232-0.56012-0.63618-1.5018-0.0763-2.1047 0.56-0.60316 1.503-0.63797 2.1061-0.07797 0.2003 0.19791 9.54e-4 8.35e-4 9.54e-4 8.35e-4l0.0011 0.0011 0.0024 0.0021 0.0058 0.0056 0.01633 0.01538c0.01276 0.01228 0.02957 0.02838 0.04984 0.04829 0.04066 0.03982 0.09586 0.09514 0.16346 0.1656 0.1352 0.14069 0.3206 0.3423 0.53926 0.60256 0.43648 0.5197 1.0096 1.278 1.5806 2.2568 1.1417 1.9572 2.2895 4.8225 2.2895 8.426 0 3.4704-1.0646 6.2562-2.1631 8.2055zm5.7497 5.7497-2.1998-2.1997c1.4395-2.7853 2.7979-6.7397 2.7979-11.756 0-5.3655-1.5542-9.5164-3.0996-12.321-0.77341-1.4035-1.5437-2.4681-2.113-3.1741-0.28447-0.35279-0.51803-0.6152-0.67577-0.78486-0.07869-0.08477-0.13842-0.14629-0.17598-0.1842-0.01872-0.01896-0.03195-0.03195-0.03923-0.03911l-0.0062-0.0061c-0.59314-0.56802-0.61508-1.5093-0.04817-2.1043 0.56775-0.5959 1.5112-0.61868 2.1071-0.050909 0.53139 0.55889 9.54e-4 9.777e-4 9.54e-4 9.777e-4l0.0012 0.00112 0.0029 0.00269 0.0074 0.00713 0.02182 0.02127c0.01765 0.017276 0.04137 0.040763 0.0707 0.070414 0.05866 0.059314 0.14009 0.14336 0.24095 0.25185 0.20161 0.21694 0.48119 0.53202 0.81264 0.94302 0.66241 0.82144 1.5344 2.0297 2.4033 3.6068 1.7393 3.1566 3.4697 7.7985 3.4697 13.759 0 5.9609-1.7304 10.603-3.4697 13.759-0.03636 0.06593-0.07261 0.13127-0.10897 0.19589z" fill="#e6b31e" stroke-width="1.1922"/></svg>
