<svg width="28" height="28" fill="none" version="1.1" viewBox="0 0 28 28" xmlns="http://www.w3.org/2000/svg"><path d="m13.768 0.82885 0.23255-0.00538c2.6078 0 4.7621 2.0264 4.9304 4.6164 0.02942 0.45384-0.31457 0.84565-0.76835 0.87514-0.4539 0.029491-0.84565-0.31451-0.87518-0.76834-0.1121-1.725-1.5486-3.0762-3.2869-3.0762-1.7541 0-3.188 1.3713-3.2883 3.1003l-0.0056 0.19354-6.59e-4 3.2928 10.157 0.0011c1.3643 0 2.4704 1.1061 2.4704 2.4704v13.178c0 1.3644-1.1061 2.4704-2.4704 2.4704h-13.727c-1.3644 0-2.4704-1.106-2.4704-2.4704v-13.178c0-1.3643 1.106-2.4704 2.4704-2.4704l1.9225-0.0011 6.588e-4 -3.2928c0-2.6508 2.0875-4.814 4.7082-4.9354l0.23255-0.00538zm7.0954 9.8763h-13.727c-0.4548 0-0.82347 0.3687-0.82347 0.82347v13.178c0 0.45478 0.36867 0.82347 0.82347 0.82347h13.727c0.45478 0 0.82347-0.3687 0.82347-0.82347v-13.178c0-0.45478-0.3687-0.82347-0.82347-0.82347zm-6.8628 5.7643c0.90966 0 1.6469 0.73739 1.6469 1.6469 0 0.90955-0.73728 1.6469-1.6469 1.6469-0.90955 0-1.6469-0.73739-1.6469-1.6469 0-0.90955 0.73739-1.6469 1.6469-1.6469z" fill="#7f7f7f" stroke="#7f7f7f" stroke-width="1.6469"/></svg>
