<svg width="24" height="24" fill="none" viewBox="0 0 24 24" xmlns="http://www.w3.org/2000/svg"><path d="m12.997 17c0-0.5516-0.4471-0.9987-0.9986-0.9987-0.5516 0-0.9987 0.4471-0.9987 0.9987 0 0.5515 0.4471 0.9986 0.9987 0.9986 0.5515 0 0.9986-0.4471 0.9986-0.9986zm-0.2592-7.8533c-0.0499-0.36604-0.3639-0.64794-0.7436-0.64764-0.4143 3.3e-4 -0.7498 0.33639-0.7494 0.7506l0.0036 4.5016 0.0069 0.1017c0.0499 0.3661 0.364 0.648 0.7437 0.6477 0.4142-4e-4 0.7497-0.3364 0.7494-0.7506l-0.0036-4.5016-7e-3 -0.10176zm1.2292-5.4878c-0.8562-1.5478-3.0814-1.5478-3.9376 5e-5l-7.7453 14.001c-0.82955 1.4996 0.25507 3.3391 1.9688 3.3391h15.491c1.7138 0 2.7984-1.8395 1.9688-3.3392l-7.7458-14.001zm-2.6251 0.72613c0.2854-0.51594 1.0272-0.51595 1.3126-2e-5l7.7457 14.002c0.2766 0.4998-0.085 1.113-0.6562 1.113h-15.491c-0.57127 0-0.9328-0.6132-0.65629-1.113l7.7453-14.001z" fill="#fff"/></svg>
