<?xml version="1.0" encoding="UTF-8"?>
<svg width="20" height="20" version="1.1" viewBox="0 0 20 20" xmlns="http://www.w3.org/2000/svg">
 <rect x=".5" y=".5" width="19" height="19" rx="3.5" fill="#999" stroke="#a6a6a6"/>
 <path d="m5.002 10.498c0-0.1367 0.04883-0.2539 0.14649-0.3515 0.09765-0.0977 0.21484-0.1465 0.35156-0.1465s0.25391 0.0488 0.35156 0.1465l2.6484 2.6484 5.6484-5.6484c0.0977-0.09765 0.2149-0.14648 0.3516-0.14648 0.0703 0 0.1348 0.01367 0.1934 0.04102 0.0625 0.02343 0.1152 0.05859 0.1582 0.10546 0.0468 0.04297 0.0839 0.09571 0.1113 0.15821 0.0273 0.05859 0.041 0.12304 0.041 0.19336 0 0.13672-0.0508 0.25586-0.1523 0.35742l-6 6c-0.09765 0.0976-0.21484 0.1465-0.35156 0.1465s-0.25391-0.0489-0.35156-0.1465l-3-3c-0.09766-0.0977-0.14649-0.2168-0.14649-0.3575z" fill="#262626"/>
</svg>
