<svg width="14" height="16" fill="none" viewBox="0 0 14 16" xmlns="http://www.w3.org/2000/svg"><path d="m3.9922 11c-0.13802 0-0.26693-0.026-0.38672-0.0781-0.11979-0.0547-0.22526-0.1263-0.31641-0.2149-0.08854-0.0911-0.15885-0.1966-0.21094-0.3164-0.05208-0.1224-0.07812-0.2526-0.07812-0.3906 0-0.10938 0.01432-0.20964 0.04297-0.30078 0.03125-0.09115 0.07682-0.18099 0.13672-0.26953l2.6016-3.7852c0.06771-0.09896 0.14714-0.1862 0.23828-0.26172 0.09115-0.07552 0.1888-0.13802 0.29297-0.1875 0.10677-0.05208 0.21875-0.09114 0.33594-0.11719 0.11718-0.02604 0.23437-0.03906 0.35156-0.03906s0.23438 0.01302 0.35156 0.03906c0.11719 0.02605 0.22787 0.06511 0.33203 0.11719 0.10677 0.04948 0.20573 0.11198 0.29688 0.1875 0.09114 0.07552 0.17057 0.16276 0.23828 0.26172l2.6016 3.7852c0.0599 0.08854 0.1042 0.17838 0.1328 0.26953 0.0313 0.09114 0.0469 0.1914 0.0469 0.30078 0 0.138-0.026 0.2682-0.0781 0.3906-0.0521 0.1198-0.1224 0.2253-0.211 0.3164-0.0885 0.0886-0.194 0.1602-0.3164 0.2149-0.1198 0.0521-0.2474 0.0781-0.3828 0.0781h-6.0195z" fill="#fff" fill-opacity=".5442"/></svg>
