<svg width="24" height="24" fill="none" viewBox="0 0 24 24" xmlns="http://www.w3.org/2000/svg"><path d="m4.2097 4.3871 0.08319-0.09421c0.36049-0.36048 0.92772-0.38821 1.32-0.08319l0.09421 0.08319 6.2929 6.2921 6.2929-6.2921c0.3905-0.39052 1.0237-0.39052 1.4142 0 0.3905 0.39053 0.3905 1.0237 0 1.4142l-6.2921 6.2929 6.2921 6.2929c0.3605 0.3605 0.3882 0.9277 0.0832 1.32l-0.0832 0.0942c-0.3605 0.3605-0.9277 0.3882-1.32 0.0832l-0.0942-0.0832-6.2929-6.2921-6.2929 6.2921c-0.39053 0.3905-1.0237 0.3905-1.4142 0-0.39052-0.3905-0.39052-1.0237 0-1.4142l6.2921-6.2929-6.2921-6.2929c-0.36048-0.36049-0.38821-0.92772-0.08319-1.32l0.08319-0.09421-0.08319 0.09421z" fill="#fff"/></svg>
