<?xml version="1.0" encoding="UTF-8"?>
<svg width="1024" height="1024" version="1.1" viewBox="160 0 1024 1024" xmlns="http://www.w3.org/2000/svg">
 <path d="m480 188c0-26 5.167-50.417 15.5-73.25 10.333-22.833 24.25-42.75 41.75-59.75 17.5-17 37.917-30.417 61.25-40.25 23.333-9.8333 47.833-14.75 73.5-14.75s50.167 4.9167 73.5 14.75c23.333 9.8334 43.75 23.25 61.25 40.25 17.5 17 31.417 36.917 41.75 59.75 10.333 22.833 15.5 47.25 15.5 73.25v328c0 25-5.083 48.917-15.25 71.75s-23.833 42.833-41 60-37.167 30.833-60 41-46.75 15.25-71.75 15.25c-26.333 0-51.333-4.75-75-14.25s-44.5-22.667-62.5-39.5-32.25-36.667-42.75-59.5-15.75-47.75-15.75-74.75zm189.5 452c17.333 0 33.917-3.167 49.75-9.5s29.75-15.167 41.75-26.5 21.5-24.667 28.5-40 10.5-31.833 10.5-49.5v-322.5c0-17-3.333-33.25-10-48.75s-15.667-29.083-27-40.75c-11.333-11.667-24.583-21-39.75-28-15.167-6.9999-31.417-10.5-48.75-10.5-17.333 1e-4 -33.917 3.2501-49.75 9.75-15.833 6.5001-29.75 15.333-41.75 26.5-12 11.167-21.5 24.417-28.5 39.75s-10.5 31.833-10.5 49.5v322.5c0 17 3.333 33.25 10 48.75s15.667 29.083 27 40.75 24.583 21 39.75 28 31.417 10.5 48.75 10.5zm34.5 222.5v129.5c0 8.67-3.167 16.17-9.5 22.5s-13.833 9.5-22.5 9.5-16.167-3.17-22.5-9.5-9.5-13.83-9.5-22.5v-129.5c-45.333-4.333-87.5-16.417-126.5-36.25s-72.833-45.417-101.5-76.75-51.167-67.333-67.5-108-24.5-83.833-24.5-129.5c0-8.667 3.167-16.167 9.5-22.5s13.833-9.5 22.5-9.5 16.167 3.167 22.5 9.5 9.5 13.833 9.5 22.5c0 25.333 3.25 50.25 9.75 74.75s16.083 47.75 28.75 69.75c13 22 28.5 41.917 46.5 59.75s37.75 32.917 59.25 45.25 44.417 21.833 68.75 28.5 49.333 10 75 10 50.667-3.333 75-10 47.25-16.167 68.75-28.5 41.167-27.333 59-45 33.25-37.667 46.25-60c13-22 22.75-45.167 29.25-69.5s9.75-49.333 9.75-75c0-8.667 3.167-16.167 9.5-22.5s13.833-9.5 22.5-9.5 16.167 3.167 22.5 9.5 9.5 13.833 9.5 22.5c0 30.333-3.75 59.667-11.25 88s-18 55-31.5 80-29.917 48-49.25 69-40.833 39.5-64.5 55.5-49.333 29-77 39-56.5 16.333-86.5 19z" fill="#fff"/>
</svg>
