<svg width="24" height="24" version="1.1" viewBox="0 0 24 24" xmlns="http://www.w3.org/2000/svg"><path transform="translate(-.07017 -.088586)" d="m12.07 18.931c2.9002 0 5.251-2.351 5.251-5.251 0-2.9002-2.351-5.251-5.251-5.251s-5.251 2.351-5.251 5.251c0 2.9002 2.351 5.251 5.251 5.251z" fill="#fff" stroke-width=".4862"/><path transform="translate(-.07017 -.088586)" d="m22.316 13.826c0.09919 0.30924 0.38508 0.5076 0.6943 0.5076 0.07585 0 0.14587-0.01167 0.22171-0.03501 0.37925-0.12253 0.59511-0.53093 0.4726-0.91606l-4.67e-4 -0.0015c-0.05187-0.15632-2.9746-8.9665-11.634-8.9665-8.6593 0-11.582 8.81-11.634 8.9666l-4.784e-4 0.0015c-0.12253 0.38508 0.087512 0.79353 0.4726 0.91606 0.38508 0.12253 0.79353-0.08752 0.91606-0.4726 0.10502-0.32674 2.6314-7.9528 10.246-7.9528 7.6139 0 10.141 7.6256 10.246 7.9528z" fill="#fff" stroke="#fff" stroke-width=".486"/></svg>
