<svg viewBox="32 0 864 1024" xmlns="http://www.w3.org/2000/svg"><path d="m544 230.5c0 39-8.417 75.917-25.25 110.75s-40.417 64.417-70.75 88.75v437.5c0 21.667-4.333 42-13 61s-20.333 35.583-35 49.75-31.667 25.33-51 33.5-39.667 12.25-61 12.25c-22.333 0-43.167-4.17-62.5-12.5s-36.25-19.75-50.75-34.25-25.917-31.417-34.25-50.75-12.5-40.167-12.5-62.5v-434c-30.333-24.333-53.917-53.917-70.75-88.75s-25.25-71.75-25.25-110.75c0-22.333 2.9167-44.417 8.75-66.25s14.25-42.5 25.25-62c11-19.5 24.417-37.333 40.25-53.5 15.833-16.167 33.75-29.583 53.75-40.25 5.333-2.6666 10.5-4.75 15.5-6.25s10.5-2.25 16.5-2.25c9 0 17.333 1.6667 25 5 7.667 3.3334 14.417 7.9167 20.25 13.75 5.833 5.8334 10.417 12.583 13.75 20.25 3.333 7.6667 5 16 5 25v134.5h64v-134.5c0-8.9999 1.667-17.333 5-25 3.333-7.6666 7.917-14.417 13.75-20.25 5.833-5.8333 12.583-10.417 20.25-13.75 7.667-3.3333 16-5 25-5 6 0 11.5 0.75 16.5 2.25s10.167 3.5834 15.5 6.25c19.667 10.667 37.417 24.083 53.25 40.25 15.833 16.167 29.25 34 40.25 53.5 11 19.5 19.5 40.25 25.5 62.25s9 44 9 66zm352 313.5v323.5c0 21.667-4.333 42-13 61s-20.333 35.583-35 49.75-31.667 25.33-51 33.5-39.667 12.25-61 12.25-41.667-4.08-61-12.25-36.333-19.333-51-33.5-26.333-30.75-35-49.75-13-39.333-13-61v-323.5c0-7.333 1.417-13.083 4.25-17.25s6.5-7.333 11-9.5 9.5-3.583 15-4.25 11.083-1 16.75-1h17v-312.5c-2-3.667-4.75-8.75-8.25-15.25s-7-13.25-10.5-20.25-6.583-13.75-9.25-20.25-4-11.75-4-15.75c0-3.667 1.5-10.417 4.5-20.25 3-9.8333 6.333-20.333 10-31.5 3.667-11.167 7.333-21.833 11-32 3.667-10.167 6.333-17.583 8-22.25 2-6.3333 5.917-11.583 11.75-15.75 5.833-4.1666 12.083-6.25 18.75-6.25h128c7 0 13.25 2 18.75 6s9.417 9.3334 11.75 16c1.333 4.6667 3.917 12.083 7.75 22.25 3.833 10.167 7.583 20.833 11.25 32 3.667 11.167 7 21.667 10 31.5 3 9.833 4.5 16.583 4.5 20.25 0 4-1.333 9.25-4 15.75s-5.75 13.25-9.25 20.25-7 13.75-10.5 20.25-6.25 11.583-8.25 15.25v312.5h17c5.667 0 11.25 0.333 16.75 1s10.5 2.083 15 4.25 8.167 5.333 11 9.5 4.25 9.917 4.25 17.25zm-512-147.5c15-8.333 28.417-18.5 40.25-30.5s21.917-25.167 30.25-39.5 14.667-29.667 19-46 6.5-33 6.5-50c0-35.333-8.417-67.417-25.25-96.25s-40.417-52.25-70.75-70.25v198.5h-192v-198.5c-30.333 18-53.917 41.417-70.75 70.25s-25.25 60.917-25.25 96.25c0 17 2.1667 33.667 6.5 50 4.333 16.333 10.667 31.667 19 46s18.417 27.5 30.25 39.5 25.25 22.167 40.25 30.5v467.5c0 13 2.5 25.333 7.5 37s11.917 21.917 20.75 30.75 19.083 15.75 30.75 20.75 24 7.5 37 7.5 25.333-2.5 37-7.5 21.917-11.917 30.75-20.75 15.75-19.083 20.75-30.75 7.5-24 7.5-37zm320 115.5h64v-320c0-5 1.167-9.833 3.5-14.5l26-52-20.5-61.5h-82l-20.5 61.5 26 52c2.333 4.667 3.5 9.5 3.5 14.5zm-64 64v64h192v-64zm192 288v-160h-192v160c0 13 2.5 25.333 7.5 37s11.917 21.917 20.75 30.75 19.083 15.75 30.75 20.75 24 7.5 37 7.5 25.333-2.5 37-7.5 21.917-11.917 30.75-20.75 15.75-19.083 20.75-30.75 7.5-24 7.5-37z" fill="#fff"></path></svg>
