<svg viewBox="64 128 896 896" xmlns="http://www.w3.org/2000/svg"><path d="m772 128c25 0 48.917 5.083 71.75 15.25s42.833 23.833 60 41 30.833 37.167 41 60 15.25 46.75 15.25 71.75v356c0 8.667-3.167 16.167-9.5 22.5s-13.833 9.5-22.5 9.5-16.167-3.167-22.5-9.5-9.5-13.833-9.5-22.5v-354.5c0-16.667-3.417-32.583-10.25-47.75s-16-28.5-27.5-40-24.833-20.667-40-27.5-31.083-10.25-47.75-10.25h-517c-16.667 0-32.583 3.417-47.75 10.25s-28.5 16-40 27.5-20.667 24.833-27.5 40-10.25 31.083-10.25 47.75v389c0 17.333 3.5 33.583 10.5 48.75s16.333 28.417 28 39.75 25.25 20.333 40.75 27 31.75 10 48.75 10h283.5c8.667 0 16.167 3.167 22.5 9.5s9.5 13.833 9.5 22.5-3.167 16.167-9.5 22.5-13.833 9.5-22.5 9.5h-287.5c-25 0-48.917-5.083-71.75-15.25s-42.833-23.833-60-41-30.833-37.167-41-60-15.25-46.75-15.25-71.75v-392c0-25 5.0833-48.917 15.25-71.75s23.833-42.833 41-60 37.167-30.833 60-41 46.75-15.25 71.75-15.25zm-137 511c-3.333 9.667-8 18.5-14 26.5s-13 14.833-21 20.5-16.75 10.083-26.25 13.25-19.417 4.75-29.75 4.75h-192c-13 0-25.333-2.5-37-7.5s-21.917-11.917-30.75-20.75-15.75-19.083-20.75-30.75-7.5-24-7.5-37v-192c0-13 2.5-25.333 7.5-37s11.917-21.917 20.75-30.75 19.083-15.75 30.75-20.75 24-7.5 37-7.5h192c10.333 0 20.25 1.583 29.75 4.75s18.25 7.583 26.25 13.25 15 12.5 21 20.5 10.667 16.833 14 26.5c5.333-4 10.583-8 15.75-12s10.583-7.75 16.25-11.25 11.5-6.333 17.5-8.5 12.5-3.25 19.5-3.25c9 0 17.333 1.667 25 5s14.417 7.917 20.25 13.75 10.417 12.583 13.75 20.25 5 16 5 25v196c0 8.667-1.667 16.917-5 24.75s-7.917 14.667-13.75 20.5-12.667 10.417-20.5 13.75-16.083 5-24.75 5c-7 0-13.5-1.083-19.5-3.25s-11.833-5-17.5-8.5-11.083-7.25-16.25-11.25-10.417-8-15.75-12zm-59-223c0-8.667-3.167-16.167-9.5-22.5s-13.833-9.5-22.5-9.5h-192c-8.667 0-16.167 3.167-22.5 9.5s-9.5 13.833-9.5 22.5v192c0 8.667 3.167 16.167 9.5 22.5s13.833 9.5 22.5 9.5h192c8.667 0 16.167-3.167 22.5-9.5s9.5-13.833 9.5-22.5zm128-2-64 46v104l64 46zm256 450c0 8.667-3.167 16.167-9.5 22.5s-13.833 9.5-22.5 9.5h-96v96c0 8.67-3.167 16.17-9.5 22.5s-13.833 9.5-22.5 9.5-16.167-3.17-22.5-9.5-9.5-13.83-9.5-22.5v-96h-94c-8.667 0-16.167-3.167-22.5-9.5s-9.5-13.833-9.5-22.5 3.167-16.167 9.5-22.5 13.833-9.5 22.5-9.5h94v-96c0-8.667 3.167-16.167 9.5-22.5s13.833-9.5 22.5-9.5 16.167 3.167 22.5 9.5 9.5 13.833 9.5 22.5v96h96c8.667 0 16.167 3.167 22.5 9.5s9.5 13.833 9.5 22.5z" fill="#fff"></path></svg>
