<svg viewBox="64 64 896 896" xmlns="http://www.w3.org/2000/svg"><path d="m64 928v-832c0-8.6666 3.1667-16.167 9.5-22.5 6.3333-6.3333 13.833-9.4999 22.5-9.5 8.667 1e-4 16.167 3.1667 22.5 9.5 6.333 6.3334 9.5 13.833 9.5 22.5v832c0 8.667-3.167 16.167-9.5 22.5s-13.833 9.5-22.5 9.5c-8.6667 0-16.167-3.167-22.5-9.5s-9.5-13.833-9.5-22.5zm191.5-416c0-13.667 3.167-26.333 9.5-38s15.167-21.333 26.5-29l544.5-358.5c13.667-8.9999 28.333-13.5 44-13.5 10.667 1e-4 20.833 2.1667 30.5 6.5 9.667 4.3334 18.167 10.167 25.5 17.5 7.333 7.333 13.167 15.833 17.5 25.5s6.5 19.833 6.5 30.5v718c0 11-2.167 21.333-6.5 31s-10.083 18.083-17.25 25.25-15.583 12.917-25.25 17.25-20 6.5-31 6.5c-16 0-30.667-4.5-44-13.5l-544.5-358.5c-11.333-7.333-20.167-16.917-26.5-28.75s-9.5-24.583-9.5-38.25zm640.5 359v-718c0-4.333-1.583-8.083-4.75-11.25s-6.917-4.75-11.25-4.75c-3 0-6 1-9 3l-544.5 358.5c-4.667 3-7 7.5-7 13.5 0 2.667 0.583 5.167 1.75 7.5s2.917 4.333 5.25 6l544.5 358.5c3.333 2 6.667 3 10 3 4 0 7.5-1.667 10.5-5s4.5-7 4.5-11z" fill="#fff"></path></svg>
