<!-- Exported by Character Map UWP -->
<svg height="100%" viewBox="64 64 896 896" width="100%" xmlns="http://www.w3.org/2000/svg" xmlns:xlink="http://www.w3.org/1999/xlink">
  <path d="M220.5,960C199.5,960 179.5,955.75 160.5,947.25C141.5,938.75 124.917,927.417 110.75,913.25C96.5833,899.083 85.25,882.5 76.75,863.5C68.25,844.5 64,824.5 64,803.5L64,220.5C64,199.5 68.25,179.5 76.75,160.5C85.25,141.5 96.5833,124.917 110.75,110.75C124.917,96.5834 141.5,85.2501 160.5,76.75C179.5,68.2501 199.5,64.0001 220.5,64L803.5,64C824.5,64.0001 844.5,68.2501 863.5,76.75C882.5,85.2501 899.083,96.5834 913.25,110.75C927.417,124.917 938.75,141.5 947.25,160.5C955.75,179.5 960,199.5 960,220.5L960,803.5C960,824.5 955.75,844.5 947.25,863.5C938.75,882.5 927.417,899.083 913.25,913.25C899.083,927.417 882.5,938.75 863.5,947.25C844.5,955.75 824.5,960 803.5,960ZM800,896C813,896 825.333,893.5 837,888.5C848.667,883.5 858.917,876.583 867.75,867.75C876.583,858.917 883.5,848.667 888.5,837C893.5,825.333 896,813 896,800L896,224C896,211 893.5,198.667 888.5,187C883.5,175.333 876.583,165.083 867.75,156.25C858.917,147.417 848.667,140.5 837,135.5C825.333,130.5 813,128 800,128L224,128C211,128 198.667,130.5 187,135.5C175.333,140.5 165.083,147.417 156.25,156.25C147.417,165.083 140.5,175.333 135.5,187C130.5,198.667 128,211 128,224L128,800C128,813 130.5,825.333 135.5,837C140.5,848.667 147.417,858.917 156.25,867.75C165.083,876.583 175.333,883.5 187,888.5C198.667,893.5 211,896 224,896Z" fill="#FFFFFF" fill-opacity="1">
  </path>
</svg>