<!-- Exported by Character Map UWP -->
<svg height="100%" viewBox="32 0 864 1024" width="100%" xmlns="http://www.w3.org/2000/svg" xmlns:xlink="http://www.w3.org/1999/xlink">
  <path d="M544,230.5C544,269.5 535.583,306.417 518.75,341.25C501.917,376.083 478.333,405.667 448,430L448,867.5C448,889.167 443.667,909.5 435,928.5C426.333,947.5 414.667,964.083 400,978.25C385.333,992.417 368.333,1003.58 349,1011.75C329.667,1019.92 309.333,1024 288,1024C265.667,1024 244.833,1019.83 225.5,1011.5C206.167,1003.17 189.25,991.75 174.75,977.25C160.25,962.75 148.833,945.833 140.5,926.5C132.167,907.167 128,886.333 128,864L128,430C97.6667,405.667 74.0833,376.083 57.25,341.25C40.4167,306.417 32,269.5 32,230.5C32,208.167 34.9167,186.083 40.75,164.25C46.5833,142.417 55,121.75 66,102.25C77,82.7501 90.4167,64.9167 106.25,48.75C122.083,32.5834 140,19.1667 160,8.5C165.333,5.83337 170.5,3.75 175.5,2.25C180.5,0.75 186,0 192,0C201,0 209.333,1.66669 217,5C224.667,8.33337 231.417,12.9167 237.25,18.75C243.083,24.5834 247.667,31.3334 251,39C254.333,46.6667 256,55.0001 256,64L256,198.5L320,198.5L320,64C320,55.0001 321.667,46.6667 325,39C328.333,31.3334 332.917,24.5834 338.75,18.75C344.583,12.9167 351.333,8.33337 359,5C366.667,1.66669 375,0 384,0C390,0 395.5,0.75 400.5,2.25C405.5,3.75 410.667,5.83337 416,8.5C435.667,19.1667 453.417,32.5834 469.25,48.75C485.083,64.9167 498.5,82.7501 509.5,102.25C520.5,121.75 529,142.5 535,164.5C541,186.5 544,208.5 544,230.5ZM896,544L896,867.5C896,889.167 891.667,909.5 883,928.5C874.333,947.5 862.667,964.083 848,978.25C833.333,992.417 816.333,1003.58 797,1011.75C777.667,1019.92 757.333,1024 736,1024C714.667,1024 694.333,1019.92 675,1011.75C655.667,1003.58 638.667,992.417 624,978.25C609.333,964.083 597.667,947.5 589,928.5C580.333,909.5 576,889.167 576,867.5L576,544C576,536.667 577.417,530.917 580.25,526.75C583.083,522.583 586.75,519.417 591.25,517.25C595.75,515.083 600.75,513.667 606.25,513C611.75,512.333 617.333,512 623,512L640,512L640,199.5C638,195.833 635.25,190.75 631.75,184.25C628.25,177.75 624.75,171 621.25,164C617.75,157 614.667,150.25 612,143.75C609.333,137.25 608,132 608,128C608,124.333 609.5,117.583 612.5,107.75C615.5,97.9167 618.833,87.4167 622.5,76.25C626.167,65.0834 629.833,54.4167 633.5,44.25C637.167,34.0834 639.833,26.6667 641.5,22C643.5,15.6667 647.417,10.4167 653.25,6.25C659.083,2.08337 665.333,0 672,0L800,0C807,0 813.25,2 818.75,6C824.25,10 828.167,15.3334 830.5,22C831.833,26.6667 834.417,34.0834 838.25,44.25C842.083,54.4167 845.833,65.0834 849.5,76.25C853.167,87.4167 856.5,97.9167 859.5,107.75C862.5,117.583 864,124.333 864,128C864,132 862.667,137.25 860,143.75C857.333,150.25 854.25,157 850.75,164C847.25,171 843.75,177.75 840.25,184.25C836.75,190.75 834,195.833 832,199.5L832,512L849,512C854.667,512 860.25,512.333 865.75,513C871.25,513.667 876.25,515.083 880.75,517.25C885.25,519.417 888.917,522.583 891.75,526.75C894.583,530.917 896,536.667 896,544ZM384,396.5C399,388.167 412.417,378 424.25,366C436.083,354 446.167,340.833 454.5,326.5C462.833,312.167 469.167,296.833 473.5,280.5C477.833,264.167 480,247.5 480,230.5C480,195.167 471.583,163.083 454.75,134.25C437.917,105.417 414.333,82.0001 384,64L384,262.5L192,262.5L192,64C161.667,82.0001 138.083,105.417 121.25,134.25C104.417,163.083 96,195.167 96,230.5C96,247.5 98.1667,264.167 102.5,280.5C106.833,296.833 113.167,312.167 121.5,326.5C129.833,340.833 139.917,354 151.75,366C163.583,378 177,388.167 192,396.5L192,864C192,877 194.5,889.333 199.5,901C204.5,912.667 211.417,922.917 220.25,931.75C229.083,940.583 239.333,947.5 251,952.5C262.667,957.5 275,960 288,960C301,960 313.333,957.5 325,952.5C336.667,947.5 346.917,940.583 355.75,931.75C364.583,922.917 371.5,912.667 376.5,901C381.5,889.333 384,877 384,864ZM704,512L768,512L768,192C768,187 769.167,182.167 771.5,177.5L797.5,125.5L777,64L695,64L674.5,125.5L700.5,177.5C702.833,182.167 704,187 704,192ZM640,576L640,640L832,640L832,576ZM832,864L832,704L640,704L640,864C640,877 642.5,889.333 647.5,901C652.5,912.667 659.417,922.917 668.25,931.75C677.083,940.583 687.333,947.5 699,952.5C710.667,957.5 723,960 736,960C749,960 761.333,957.5 773,952.5C784.667,947.5 794.917,940.583 803.75,931.75C812.583,922.917 819.5,912.667 824.5,901C829.5,889.333 832,877 832,864Z" fill="#FFFFFF" fill-opacity="1">
  </path>
</svg>