<?xml version="1.0" encoding="UTF-8"?>
<svg width="24" height="24" version="1.1" viewBox="0 0 24 24" xml:space="preserve" xmlns="http://www.w3.org/2000/svg"><path d="m20.359 17.681c0-0.08059 0.01542-0.14576 0.04624-0.19553 0.03082-0.04976 0.07228-0.1031 0.12444-0.15998 0.06637-0.06637 0.13747-0.12917 0.21331-0.18843 0.07584-0.05928 0.14932-0.12206 0.22042-0.18843 0.3413-0.31286 0.64468-0.66009 0.91014-1.0417 0.26546-0.38158 0.48825-0.7857 0.66839-1.2123 0.18014-0.42663 0.31641-0.86748 0.40885-1.3225 0.09244-0.45507 0.13866-0.91251 0.13866-1.3723 0-0.45507-0.04624-0.91131-0.13866-1.3688-0.09243-0.45744-0.22991-0.90065-0.4124-1.3297-0.1825-0.429-0.4053-0.83548-0.66839-1.2194-0.26308-0.38396-0.56528-0.73-0.90658-1.0381-0.0711-0.06637-0.14458-0.12917-0.22042-0.18842-0.07584-0.05928-0.14694-0.12206-0.21331-0.18843-0.05685-0.05685-0.09954-0.10903-0.12799-0.15643-0.02846-0.04738-0.04266-0.11377-0.04266-0.1991 0-0.12799 0.04386-0.23464 0.13155-0.31997 0.08769-0.08532 0.19553-0.12799 0.32352-0.12799 0.05685 0 0.10666 0.0083 0.14932 0.02488 0.04266 0.01656 0.08769 0.0415 0.1351 0.07465 0.21331 0.13747 0.42425 0.31286 0.63283 0.52618s0.40647 0.44203 0.59372 0.68616c0.18725 0.24413 0.35908 0.49418 0.51551 0.75015 0.15644 0.25597 0.28916 0.49773 0.39819 0.72526 0.25124 0.52617 0.44085 1.0701 0.56884 1.6318 0.12799 0.56173 0.19198 1.1341 0.19198 1.7172 0 0.57832-0.06399 1.1507-0.19198 1.7172-0.12798 0.56646-0.3176 1.1104-0.56884 1.6318-0.10903 0.2228-0.24175 0.46336-0.39819 0.72171-0.15643 0.25836-0.32945 0.50958-0.51906 0.75371-0.18961 0.24413-0.3887 0.47285-0.59728 0.68616-0.20858 0.21332-0.41714 0.3887-0.62572 0.52617-0.05218 0.03319-0.09837 0.05806-0.13866 0.07466-0.0403 0.01663-0.08887 0.02488-0.14576 0.02488-0.12325 0-0.22991-0.04502-0.31997-0.1351-0.09006-0.09006-0.1351-0.19672-0.1351-0.31997zm-1.7918-1.6354c0-0.08059 0.01304-0.1422 0.03914-0.18487 0.02609-0.04266 0.06518-0.09481 0.11732-0.15643 0.26071-0.2939 0.493-0.57594 0.69682-0.84614 0.20382-0.2702 0.37447-0.54869 0.51195-0.83548 0.13747-0.2868 0.24294-0.59372 0.31641-0.9208 0.07348-0.32708 0.11021-0.69445 0.11021-1.1021 0-0.40767-0.0367-0.77504-0.11021-1.1021-0.07348-0.32709-0.17894-0.63401-0.31641-0.92081-0.13748-0.2868-0.30813-0.56528-0.51195-0.83548-0.20383-0.2702-0.43611-0.55224-0.69682-0.84614-0.05212-0.06162-0.09126-0.11377-0.11732-0.15643-0.02608-0.04266-0.03914-0.10428-0.03914-0.18487 0-0.12325 0.04623-0.22871 0.13865-0.31641 0.09243-0.08769 0.20027-0.13154 0.32352-0.13154 0.07111 0 0.12562 0.0083 0.16354 0.02488 0.03792 0.01663 0.08533 0.04623 0.14221 0.08888 0.14221 0.10903 0.28324 0.24293 0.42308 0.40174 0.13983 0.15881 0.27257 0.32826 0.39818 0.5084 0.12561 0.18014 0.24057 0.36381 0.34486 0.55106 0.10428 0.18725 0.19198 0.36382 0.26308 0.52973 0.33656 0.75844 0.50484 1.5548 0.50484 2.3891 0 0.8343-0.16828 1.6307-0.50484 2.3891-0.06637 0.1517-0.15287 0.32352-0.25953 0.51551-0.10666 0.19198-0.22398 0.38159-0.35196 0.56884-0.12799 0.18724-0.26191 0.36145-0.40174 0.52262-0.13983 0.16117-0.27849 0.28915-0.41596 0.38397-0.05218 0.03318-0.10073 0.06044-0.14576 0.08177-0.04502 0.02135-0.09837 0.03197-0.15999 0.03197-0.12325 0-0.23109-0.04386-0.32352-0.13154-0.09243-0.08769-0.13865-0.19316-0.13865-0.31642zm-1.7634-1.7349c0-0.06637 0.0083-0.1185 0.02488-0.15643 0.01657-0.03792 0.04386-0.08295 0.08177-0.1351 0.10903-0.16592 0.20857-0.3259 0.29863-0.47996 0.09006-0.15406 0.16592-0.31048 0.22754-0.46929 0.06162-0.1588 0.10903-0.32471 0.14221-0.49773 0.03319-0.17302 0.04975-0.36381 0.04975-0.57239 0-0.20383-0.01663-0.39345-0.04975-0.56884-0.03318-0.17538-0.08059-0.34248-0.14221-0.50129-0.06161-0.15881-0.13747-0.31524-0.22754-0.46929-0.09006-0.15406-0.18961-0.31404-0.29863-0.47995-0.03792-0.05218-0.06519-0.09717-0.08177-0.1351-0.01663-0.03792-0.02488-0.09006-0.02488-0.15643 0-0.12326 0.04502-0.22991 0.1351-0.31997 0.09006-0.09006 0.19672-0.1351 0.31997-0.1351 0.08059 0 0.14694 0.01419 0.19909 0.04266 0.05218 0.02846 0.10428 0.07111 0.15643 0.12799 0.1517 0.16591 0.28442 0.35197 0.39818 0.55817 0.11377 0.2062 0.20976 0.42425 0.28797 0.65416 0.07822 0.22991 0.13747 0.46336 0.17776 0.70038 0.0403 0.23702 0.06044 0.46455 0.06044 0.6826 0 0.20858-0.02014 0.43256-0.06044 0.67194-0.0403 0.23938-0.09954 0.4764-0.17776 0.71105-0.07822 0.23464-0.17538 0.45744-0.29153 0.66838-0.11614 0.21094-0.24768 0.39226-0.39463 0.54395-0.09954 0.10903-0.21804 0.16354-0.35552 0.16354-0.12326 0-0.22991-0.04386-0.31997-0.13154-0.09006-0.08769-0.1351-0.19316-0.1351-0.31641z" fill="#fff" stroke-width=".014221"/><path d="m7.3473 17.733h-4.0045c-0.45268 0-0.88214-0.07475-1.2884-0.22423-0.40625-0.14949-0.76317-0.35628-1.0708-0.62038-0.30759-0.26408-0.54844-0.57054-0.72255-0.91934-0.17411-0.34882-0.26116-0.71754-0.26116-1.1062v-5.7403c0-0.38867 0.087063-0.75739 0.26116-1.1062 0.17411-0.34881 0.41496-0.65526 0.72255-0.91935 0.30759-0.26408 0.6645-0.47089 1.0708-0.62038 0.40625-0.14949 0.83571-0.22423 1.2884-0.22423h4.0045l5.3973-4.6491c0.16252-0.13953 0.34532-0.24167 0.54845-0.30644 0.20311-0.064802 0.41496-0.097203 0.63548-0.097203 0.4759 0 0.87342 0.13454 1.1926 0.40362 0.31922 0.26908 0.4788 0.6079 0.4788 1.0165v18.746c0 0.19932-0.04353 0.38367-0.13059 0.5531-0.08706 0.16943-0.20894 0.32139-0.36562 0.45594-0.1567 0.13454-0.33662 0.23918-0.53975 0.31393-0.20311 0.07475-0.41496 0.11213-0.63548 0.11213-0.46427 0-0.85894-0.13954-1.1839-0.41857zm6.0241 2.4665v-16.429l-4.788 4.1109c-0.22052 0.18934-0.48168 0.28403-0.78348 0.28403h-4.4571c-0.30179 0-0.56295 0.09465-0.78348 0.28403-0.22054 0.18934-0.33081 0.41357-0.33081 0.67269v5.7403c0 0.25912 0.11024 0.48336 0.33081 0.67269 0.22052 0.18934 0.48168 0.28403 0.78348 0.28403h4.4571c0.30179 0 0.56295 0.09465 0.78348 0.28403z" fill="#fff" stroke-width=".032266"/></svg>
