<?xml version="1.0" encoding="UTF-8"?>
<svg version="1.1" viewBox="28 0 968 1024" xml:space="preserve" xmlns="http://www.w3.org/2000/svg"><path d="m512 0c-13.333 1.4803e-16 -26.833 0.41669-40.5 1.25-13.667 0.8334-27.167 2.4168-40.5 4.75-14 2.667-25.75 8.5001-35.25 17.5-9.5 9-15.583 20.5-18.25 34.5-3 16.333-6 32.667-9 49-3 16.333-6 32.667-9 49-2.667 14.667-9.417 26.583-20.25 35.75s-23.75 13.75-38.75 13.75c-11.667 0-23.083-2.167-34.25-6.5s-22.25-9.083-33.25-14.25-22-9.917-33-14.25-22.333-6.5-34-6.5c-9.667 0-18.75 2-27.25 6s-16.083 9.667-22.75 17c-4.333 4.667-9.5 11.167-15.5 19.5-6 8.333-12.25 17.583-18.75 27.75s-13 20.833-19.5 32-12.25 22.083-17.25 32.75-9.0833 20.667-12.25 30-4.75 17-4.75 23c0 12 3 22.667 9 32s13.5 18.083 22.5 26.25 18.667 15.917 29 23.25 20 14.917 29 22.75 16.5 16.25 22.5 25.25 9 19.167 9 30.5c0 11.667-3 21.917-9 30.75s-13.417 17.167-22.25 25-18.5 15.25-29 22.25-20.167 14.417-29 22.25-16.25 16.5-22.25 26-9 20.25-9 32.25c0 6.333 1.5 14.167 4.5 23.5s6.917 19.25 11.75 29.75 10.417 21.333 16.75 32.5 12.667 21.75 19 31.75 12.417 19.167 18.25 27.5c5.833 8.333 10.917 15 15.25 20 6.667 7.667 14.167 13.583 22.5 17.75s17.5 6.25 27.5 6.25c11.667 0 23.167-2.167 34.5-6.5s22.583-9 33.75-14 22.417-9.667 33.75-14 22.833-6.5 34.5-6.5c14.667 0 27.5 4.667 38.5 14s17.833 21.167 20.5 35.5c3 16 5.833 32.083 8.5 48.25s5.5 32.25 8.5 48.25c2.667 14 8.5 25.583 17.5 34.75 9 9.17 20.5 15.08 34.5 17.75 13.667 2.67 27.5 4.5 41.5 5.5s28 1.5 42 1.5c13.667 0 27.25-0.42 40.75-1.25s26.917-2.42 40.25-4.75c14.333-2.67 26.167-8.42 35.5-17.25 9.333-8.833 15.333-20.417 18-34.75 1.667-8.667 3.25-17.083 4.75-25.25s3.083-16.583 4.75-25.25c2-10.667 3.917-21.75 5.75-33.25s4.917-22 9.25-31.5 10.5-17.25 18.5-23.25 19.333-9 34-9c10.667 0 21.667 2.167 33 6.5s22.667 9.083 34 14.25 22.75 9.917 34.25 14.25 22.75 6.5 33.75 6.5c9.667 0 18.583-2 26.75-6s15.583-9.667 22.25-17c4.333-5 9.583-11.667 15.75-20s12.5-17.5 19-27.5 13-20.5 19.5-31.5 12.25-21.833 17.25-32.5c5-10.667 9.083-20.583 12.25-29.75s4.75-17.083 4.75-23.75c0-12-3-22.667-9-32s-13.5-18.083-22.5-26.25-18.667-15.917-29-23.25-20-14.917-29-22.75-16.5-16.25-22.5-25.25-9-19.167-9-30.5c0-11.667 3-21.917 9-30.75s13.417-17.167 22.25-25 18.5-15.25 29-22.25 20.167-14.417 29-22.25 16.25-16.417 22.25-25.75 9-20.167 9-32.5c0-6.333-1.5-14.167-4.5-23.5s-6.917-19.25-11.75-29.75-10.417-21.333-16.75-32.5-12.667-21.75-19-31.75-12.417-19.167-18.25-27.5-10.917-15-15.25-20c-6.667-7.667-14.083-13.583-22.25-17.75s-17.417-6.25-27.75-6.25c-11.667 0-23.167 2.167-34.5 6.5s-22.583 9-33.75 14c-11.167 5-22.417 9.667-33.75 14s-22.833 6.5-34.5 6.5c-14.667 0-27.5-4.667-38.5-14s-17.833-21.167-20.5-35.5c-3-16.333-5.833-32.5-8.5-48.5-2.667-16-5.5-32.167-8.5-48.5-2.667-14-8.5-25.5-17.5-34.5s-20.5-14.833-34.5-17.5c-13.667-2.6666-27.5-4.5-41.5-5.5s-28-1.5-42-1.5zm0 384c17.667 0 34.25 3.333 49.75 10s29.083 15.833 40.75 27.5 20.833 25.25 27.5 40.75 10 32.083 10 49.75-3.333 34.25-10 49.75-15.833 29.083-27.5 40.75-25.25 20.833-40.75 27.5-32.083 10-49.75 10-34.25-3.333-49.75-10-29.083-15.833-40.75-27.5-20.833-25.25-27.5-40.75-10-32.083-10-49.75 3.333-34.25 10-49.75 15.833-29.083 27.5-40.75 25.25-20.833 40.75-27.5 32.083-10 49.75-10z" fill="#fff" style="paint-order:normal"/></svg>
