<svg viewBox="0 1 1024 1027" xmlns="http://www.w3.org/2000/svg"><path d="m324 606c-15 0-28.667 3-41 9s-24.417 12.667-36.25 20-24.083 14-36.75 20-26.667 9-42 9c-20.667 0-40.333-5-59-15-18.667-10-35.5-21.5-50.5-34.5-20.333-17.667-35.167-37.917-44.5-60.75-9.3333-22.833-14-47.583-14-74.25s3.6667-53.25 11-79.75c7.3333-26.5 16.333-51.75 27-75.75 11.667-26 25.167-51.167 40.5-75.5s32-47.5 50-69.5c16.333-20 33.667-38.917 52-56.75s38.5-33.75 60.5-47.75c37.667-24 77.75-42.333 120.25-55 42.5-12.667 86.083-19 130.75-19 42.333 0 84 5.5 125 16.5s80.167 26.5 117.5 46.5c45.667 25 86.417 54.167 122.25 87.5s66.167 70.333 91 111 43.75 84.583 56.75 131.75 19.5 96.917 19.5 149.25c0 32-2.42 63.75-7.25 95.25s-11.92 62.583-21.25 93.25c-7.333 23.667-16.583 47.417-27.75 71.25s-24.25 46.667-39.25 68.5-31.667 42.333-50 61.5-38.25 35.75-59.75 49.75-44.5 25-69 33-50.25 12-77.25 12c-15 0-29.75-1.33-44.25-4s-28.75-6.5-42.75-11.5c-29.333-10.33-54.5-23.167-75.5-38.5s-38.417-33.167-52.25-53.5-24.333-43.167-31.5-68.5-11.75-53.167-13.75-83.5c-1.333-18.333-2.25-36.667-2.75-55s-2.917-36.5-7.25-54.5c-1.333-5-2.833-10.333-4.5-16s-4.333-10.333-8-14c-3.667-4-8.167-7.5-13.5-10.5s-11-5.333-17-7-12.083-2.917-18.25-3.75-11.917-1.25-17.25-1.25zm348.5 357.5c25 0 48.833-4.75 71.5-14.25s43.667-22.083 63-37.75c26.333-21.333 49.167-46.5 68.5-75.5s35.333-59.917 48-92.75 22-66.667 28-101.5 9-68.75 9-101.75c0-46.333-5.75-90.167-17.25-131.5s-28.25-79.75-50.25-115.25-48.833-67.75-80.5-96.75-67.667-54.5-108-76.5c-32.333-17.667-66.5-31.5-102.5-41.5s-72.667-15-110-15c-46 0-89.083 7.3334-129.25 22-40.167 14.667-76.917 34.917-110.25 60.75s-63.167 56.167-89.5 91-48.5 72.417-66.5 112.75c-9.3333 20.333-17.083 41.333-23.25 63s-9.25 43.833-9.25 66.5c0 17.333 2.6667 33.083 8 47.25s14.5 27.083 27.5 38.75c3.667 3.333 8.25 7 13.75 11s11.25 7.75 17.25 11.25 12 6.5 18 9 11.5 3.75 16.5 3.75c9.333 0 19.333-3.083 30-9.25s22.417-12.833 35.25-20 26.917-13.833 42.25-20 32.5-9.25 51.5-9.25c10.333 0 20.667 0.917 31 2.75s20.333 4.25 30 7.25c21.667 7 38.333 17 50 30s20.25 27.917 25.75 44.75 8.917 35.167 10.25 55 2.583 40.083 3.75 60.75 3.333 41.333 6.5 62 9.25 40.25 18.25 58.75 22 35.417 39 50.75 39.833 28 68.5 38c21.333 7.667 43.167 11.5 65.5 11.5zm-224.5-723.5c0-13.333 4.667-24.667 14-34s20.667-14 34-14 24.667 4.667 34 14 14 20.667 14 34-4.667 24.667-14 34-20.667 14-34 14-24.667-4.667-34-14-14-20.667-14-34zm192 64c0-13.333 4.667-24.667 14-34s20.667-14 34-14 24.667 4.667 34 14 14 20.667 14 34-4.667 24.667-14 34-20.667 14-34 14-24.667-4.667-34-14-14-20.667-14-34zm112 144c0-13.333 4.667-24.667 14-34s20.667-14 34-14 24.667 4.667 34 14 14 20.667 14 34-4.667 24.667-14 34-20.667 14-34 14-24.667-4.667-34-14-14-20.667-14-34zm0 192c0-13.333 4.667-24.667 14-34s20.667-14 34-14 24.667 4.667 34 14 14 20.667 14 34-4.667 24.667-14 34-20.667 14-34 14-24.667-4.667-34-14-14-20.667-14-34zm-128 128c0-13.333 4.667-24.667 14-34s20.667-14 34-14 24.667 4.667 34 14 14 20.667 14 34-4.667 24.667-14 34-20.667 14-34 14-24.667-4.667-34-14-14-20.667-14-34z" fill="#fff"></path></svg>
