<svg viewBox="0 0 1024 960" xmlns="http://www.w3.org/2000/svg"><path d="m125.5 960c-16.667 0-32.583-3.417-47.75-10.25s-28.5-16-40-27.5-20.667-24.833-27.5-40c-6.8333-15.167-10.25-31.083-10.25-47.75v-581c0-17.333 3.5-33.583 10.5-48.75s16.333-28.417 28-39.75 25.25-20.333 40.75-27 31.75-10 48.75-10h140l37.5-75c4-8 9.083-15.25 15.25-21.75s13-12.083 20.5-16.75c7.5-4.6666 15.5-8.25 24-10.75s17.25-3.75 26.25-3.75h241c9 0 17.75 1.25 26.25 3.75s16.5 6.0834 24 10.75c7.5 4.6667 14.333 10.25 20.5 16.75s11.25 13.75 15.25 21.75l37.5 75h142.5c16.667 0 32.583 3.417 47.75 10.25s28.5 16 40 27.5 20.67 24.833 27.5 40 10.25 31.083 10.25 47.75v581c0 16.667-3.42 32.583-10.25 47.75s-16 28.5-27.5 40-24.833 20.667-40 27.5-31.083 10.25-47.75 10.25zm770.5-64c9 0 17.333-1.667 25-5s14.417-7.917 20.25-13.75 10.417-12.583 13.75-20.25 5-16 5-25v-576c0-8.667-1.667-16.917-5-24.75s-7.917-14.667-13.75-20.5-12.667-10.417-20.5-13.75-16.083-5-24.75-5h-160c-6 0-11.583-1.583-16.75-4.75s-9.083-7.417-11.75-12.75l-46.5-93c-2.667-5.3333-6.583-9.5833-11.75-12.75-5.167-3.1666-10.75-4.7499-16.75-4.75h-241c-6 1e-4 -11.583 1.5834-16.75 4.75-5.167 3.1667-9.083 7.4167-11.75 12.75l-46.5 93c-2.667 5.333-6.583 9.583-11.75 12.75s-10.75 4.75-16.75 4.75h-160c-9 0-17.333 1.667-25 5-7.6667 3.333-14.417 7.917-20.25 13.75s-10.417 12.583-13.75 20.25-5 16-5 25v576c0 9 1.6667 17.417 5 25.25s7.8333 14.583 13.5 20.25 12.417 10.167 20.25 13.5c7.833 3.333 16.25 5 25.25 5zm-640-389c0-33.667 6.75-65.667 20.25-96s31.75-57 54.75-80 49.667-41.25 80-54.75 62.333-20.25 96-20.25c37 0 71.417 6.667 103.25 20s59.417 31.667 82.75 55 41.667 50.917 55 82.75 20 66.25 20 103.25c0 34.667-6.917 67.25-20.75 97.75s-32.417 57.083-55.75 79.75-50.5 40.583-81.5 53.75-63.667 19.75-98 19.75c-36.333 0-70.083-6.833-101.25-20.5s-58.25-32.333-81.25-56-41-51.333-54-83-19.5-65.5-19.5-101.5zm448 1c0-26-5.167-50.417-15.5-73.25s-24.25-42.75-41.75-59.75-37.917-30.417-61.25-40.25-47.833-14.75-73.5-14.75c-26.667 0-51.667 5-75 15s-43.667 23.667-61 41-31 37.667-41 61-15 48.333-15 75 5 51.667 15 75 23.667 43.667 41 61 37.667 31 61 41 48.333 15 75 15c27.333 0 52.75-5.083 76.25-15.25s43.833-24.167 61-42 30.583-38.667 40.25-62.5 14.5-49.25 14.5-76.25z" fill="#fff"></path></svg>
