<svg viewBox="64 64 896 896" xmlns="http://www.w3.org/2000/svg"><path d="m772 64c25 1e-4 48.917 5.0834 71.75 15.25 22.833 10.167 42.833 23.833 60 41s30.833 37.167 41 60 15.25 46.75 15.25 71.75v520c0 25-5.083 48.917-15.25 71.75s-23.833 42.833-41 60-37.167 30.833-60 41-46.75 15.25-71.75 15.25h-520c-25 0-48.917-5.083-71.75-15.25s-42.833-23.833-60-41-30.833-37.167-41-60-15.25-46.75-15.25-71.75v-520c0-25 5.0833-48.917 15.25-71.75s23.833-42.833 41-60 37.167-30.833 60-41c22.833-10.167 46.75-15.25 71.75-15.25zm-626 769 287-287c10.667-10.667 22.75-18.75 36.25-24.25s27.75-8.25 42.75-8.25 29.25 2.75 42.75 8.25 25.583 13.583 36.25 24.25l287 287c6-9.667 10.5-20 13.5-31s4.5-22.333 4.5-34v-514.5c0-16.667-3.417-32.583-10.25-47.75s-16-28.5-27.5-40-24.833-20.667-40-27.5-31.083-10.25-47.75-10.25h-517c-16.667 0-32.583 3.417-47.75 10.25s-28.5 16-40 27.5-20.667 24.833-27.5 40-10.25 31.083-10.25 47.75v514.5c0 11.667 1.5 23 4.5 34s7.5 21.333 13.5 31zm430-481c0-13 2.5-25.333 7.5-37s11.917-21.917 20.75-30.75 19.083-15.75 30.75-20.75 24-7.5 37-7.5 25.333 2.5 37 7.5 21.917 11.917 30.75 20.75 15.75 19.083 20.75 30.75 7.5 24 7.5 37-2.5 25.333-7.5 37-11.917 21.917-20.75 30.75-19.083 15.75-30.75 20.75-24 7.5-37 7.5-25.333-2.5-37-7.5-21.917-11.917-30.75-20.75-15.75-19.083-20.75-30.75-7.5-24-7.5-37zm64 0c0 8.667 3.167 16.167 9.5 22.5s13.833 9.5 22.5 9.5 16.167-3.167 22.5-9.5 9.5-13.833 9.5-22.5-3.167-16.167-9.5-22.5-13.833-9.5-22.5-9.5-16.167 3.167-22.5 9.5-9.5 13.833-9.5 22.5zm128 544c23.667 0 45.333-6 65-18l-287-287c-9.333-9.333-20.667-14-34-14s-24.667 4.667-34 14l-287 287c9.667 6 20 10.5 31 13.5s22.333 4.5 34 4.5z" fill="#fff"></path></svg>
