<!-- Exported by Character Map UWP -->
<svg height="100%" viewBox="0 0 1024 1024" width="100%" xmlns="http://www.w3.org/2000/svg" xmlns:xlink="http://www.w3.org/1999/xlink">
  <path d="M0,607.5C0,604.833 1.5,599 4.5,590C7.5,581 11.25,570.333 15.75,558C20.25,545.667 25.3333,532.417 31,518.25C36.6667,504.083 42.0833,490.583 47.25,477.75C52.4167,464.917 57.1667,453.333 61.5,443C65.8333,432.667 68.8333,425.167 70.5,420.5L226,20.5C228.667,14.1667 232.667,9.16669 238,5.5C243.333,1.83337 249.333,0 256,0C263.333,0 269.417,1.83337 274.25,5.5C279.083,9.16669 283,14.1667 286,20.5C289,27.1667 291.75,34.0834 294.25,41.25C296.75,48.4167 299.333,55.3334 302,62L339.5,159C358.5,207.667 377.417,256.167 396.25,304.5C415.083,352.833 434,401.333 453,450L419,539.5L390,464.5L122,464.5L62,619.5C59.3333,625.833 55.25,630.833 49.75,634.5C44.25,638.167 38.1667,640 31.5,640C22.5,640 15,636.75 9,630.25C3,623.75 0,616.167 0,607.5ZM256,120.5L147,400.5L365,400.5ZM288,1024C279.333,1024 271.833,1020.83 265.5,1014.5C259.167,1008.17 256,1000.67 256,992C256,985 257.417,979.333 260.25,975C263.083,970.667 266.833,967.333 271.5,965C276.167,962.667 281.333,961.167 287,960.5C292.667,959.833 298.5,959.5 304.5,959.5C309.167,959.5 313.667,959.583 318,959.75C322.333,959.917 326.333,960 330,960L610,213C612.333,206.667 616.25,201.583 621.75,197.75C627.25,193.917 633.333,192 640,192C646.667,192 652.75,193.833 658.25,197.5C663.75,201.167 667.667,206.167 670,212.5L956,960C959.667,960 963.25,959.917 966.75,959.75C970.25,959.583 973.833,959.5 977.5,959.5C983.167,959.5 988.833,959.833 994.5,960.5C1000.17,961.167 1005.17,962.667 1009.5,965C1013.83,967.333 1017.33,970.667 1020,975C1022.67,979.333 1024,985 1024,992C1024,1000.67 1020.83,1008.17 1014.5,1014.5C1008.17,1020.83 1000.67,1024 992,1024L864,1024C855.333,1024 847.833,1020.83 841.5,1014.5C835.167,1008.17 832,1000.67 832,992C832,984.333 833.583,978.333 836.75,974C839.917,969.667 843.917,966.5 848.75,964.5C853.583,962.5 859,961.25 865,960.75C871,960.25 877,960 883,960L887.5,960L814,768L470,768L398,960C404,960 409.917,960.25 415.75,960.75C421.583,961.25 426.917,962.5 431.75,964.5C436.583,966.5 440.5,969.667 443.5,974C446.5,978.333 448,984.333 448,992C448,1000.67 444.833,1008.17 438.5,1014.5C432.167,1020.83 424.667,1024 416,1024ZM640.5,314.5L494,704L789.5,704Z" fill="#FFFFFF" fill-opacity="1">
  </path>
</svg>