<svg viewBox="0 0 1024 1024" xmlns="http://www.w3.org/2000/svg"><path d="m0 607.5c0-2.667 1.5-8.5 4.5-17.5s6.75-19.667 11.25-32 9.5833-25.583 15.25-39.75 11.083-27.667 16.25-40.5 9.9167-24.417 14.25-34.75 7.3333-17.833 9-22.5l155.5-400c2.667-6.3333 6.667-11.333 12-15 5.333-3.6666 11.333-5.5 18-5.5 7.333 0 13.417 1.8334 18.25 5.5 4.833 3.6667 8.75 8.6667 11.75 15 3 6.6667 5.75 13.583 8.25 20.75 2.5 7.1667 5.083 14.083 7.75 20.75l37.5 97c19 48.667 37.917 97.167 56.75 145.5s37.75 96.833 56.75 145.5l-34 89.5-29-75h-268l-60 155c-2.6667 6.333-6.75 11.333-12.25 15s-11.583 5.5-18.25 5.5c-9 0-16.5-3.25-22.5-9.75s-9-14.083-9-22.75zm256-487-109 280h218zm32 903.5c-8.667 0-16.167-3.17-22.5-9.5s-9.5-13.83-9.5-22.5c0-7 1.417-12.667 4.25-17s6.583-7.667 11.25-10 9.833-3.833 15.5-4.5 11.5-1 17.5-1c4.667 0 9.167 0.083 13.5 0.25s8.333 0.25 12 0.25l280-747c2.333-6.333 6.25-11.417 11.75-15.25s11.583-5.75 18.25-5.75 12.75 1.833 18.25 5.5 9.417 8.667 11.75 15l286 747.5c3.667 0 7.25-0.083 10.75-0.25s7.083-0.25 10.75-0.25c5.667 0 11.333 0.333 17 1 5.67 0.667 10.67 2.167 15 4.5s7.83 5.667 10.5 10 4 10 4 17c0 8.67-3.17 16.17-9.5 22.5s-13.83 9.5-22.5 9.5h-128c-8.667 0-16.167-3.17-22.5-9.5s-9.5-13.83-9.5-22.5c0-7.667 1.583-13.667 4.75-18s7.167-7.5 12-9.5 10.25-3.25 16.25-3.75 12-0.75 18-0.75h4.5l-73.5-192h-344l-72 192c6 0 11.917 0.25 17.75 0.75s11.167 1.75 16 3.75 8.75 5.167 11.75 9.5 4.5 10.333 4.5 18c0 8.67-3.167 16.17-9.5 22.5s-13.833 9.5-22.5 9.5zm352.5-709.5-146.5 389.5h295.5z" fill="#fff"></path></svg>
