<?xml version="1.0" encoding="UTF-8"?>
<svg width="24" height="24" fill="none" version="1.1" viewBox="0 0 24 24" xmlns="http://www.w3.org/2000/svg">
 <path d="m15.6 2.7024c0-1.2943-1.5294-1.981-2.4966-1.121l-5.3899 4.7919c-0.16475 0.14648-0.37753 0.22739-0.59799 0.22739h-4.4155c-1.4912 0-2.7 1.2088-2.7 2.7v5.3975c0 1.4911 1.2088 2.7 2.7 2.7h4.4155c0.22048 0 0.43329 0.081 0.59805 0.22738l5.3898 4.7925c0.96734 0.86016 2.4967 0.17338 2.4967-1.1209zm1.4637 5.9636c0.35146-0.35148 0.92122-0.35148 1.2727 0l2.0636 2.0636 2.0637-2.0636c0.35146-0.35148 0.92122-0.35148 1.2727 0 0.35146 0.35146 0.35146 0.9213 0 1.2728l-2.0635 2.0636 2.0635 2.0637c0.35146 0.35146 0.35146 0.92122 0 1.2727-0.3515 0.35146-0.92126 0.35146-1.2727 0l-2.0637-2.0637-2.0636 2.0637c-0.3515 0.35146-0.92127 0.35146-1.2727 0-0.35151-0.3515-0.35151-0.92126 0-1.2727l2.0635-2.0637-2.0635-2.0636c-0.35151-0.35147-0.35151-0.92131 0-1.2728z" fill="#c42b1c" stroke-width="1.2"/>
</svg>
