<?xml version="1.0" encoding="UTF-8"?>
<svg width="24" height="24" version="1.1" viewBox="0 0 24 24" xml:space="preserve" xmlns="http://www.w3.org/2000/svg"><path d="m15.6 2.7024c0-1.2943-1.5294-1.981-2.4966-1.121l-5.3899 4.7919c-0.16475 0.14648-0.37753 0.22739-0.59799 0.22739h-4.4155c-1.4912 0-2.7 1.2088-2.7 2.7v5.3975c0 1.4911 1.2088 2.7 2.7 2.7h4.4155c0.22048 0 0.43329 0.081 0.59805 0.22738l5.3898 4.7925c0.96734 0.86016 2.4967 0.17338 2.4967-1.1209z" fill="#e6b31c" stroke-width="1.2"/><path d="m21.441 13.912h-2.0877l-0.4386-8.035h2.9649zm-2.5614 2.8131c0-0.45481 0.12281-0.80855 0.38596-1.0444s0.63158-0.35374 1.1228-0.35374c0.47368 0 0.8421 0.11792 1.1053 0.37059 0.26316 0.23583 0.38596 0.57272 0.38596 1.0275 0 0.43796-0.12281 0.77486-0.38596 1.0275-0.26316 0.25267-0.63158 0.37058-1.1053 0.37058s-0.8421-0.11791-1.1053-0.37058c-0.26316-0.23583-0.40351-0.57272-0.40351-1.0275z" clip-rule="evenodd" fill="#e6b31c" image-rendering="optimizeQuality" stroke-linejoin="round" stroke-miterlimit="2" stroke-width="17.191"/></svg>
