<svg version="1.1" viewBox="64 64 896 896" xmlns="http://www.w3.org/2000/svg"><path d="m160 960c-13 0-25.3-2.5-37-7.5s-21.9-11.9-30.8-20.8c-8.83-8.83-15.8-19.1-20.8-30.8s-7.5-24-7.5-37v-704c0-13 2.5-25.3 7.5-37s11.9-21.9 20.8-30.8c8.83-8.83 19.1-15.8 30.8-20.8 11.7-5 24-7.5 37-7.5h128c13 1e-4 25.3 2.5 37 7.5 11.7 5 21.9 11.9 30.8 20.8s15.8 19.1 20.8 30.8 7.5 24 7.5 37v704c0 13-2.5 25.3-7.5 37s-11.9 21.9-20.8 30.8-19.1 15.8-30.8 20.8-24 7.5-37 7.5zm576 0c-13 0-25.3-2.5-37-7.5s-21.9-11.9-30.8-20.8-15.8-19.1-20.8-30.8-7.5-24-7.5-37v-704c0-13 2.5-25.3 7.5-37s11.9-21.9 20.8-30.8c8.83-8.83 19.1-15.8 30.8-20.8 11.7-5 24-7.5 37-7.5h128c13 1e-4 25.3 2.5 37 7.5 11.7 5 21.9 11.9 30.8 20.8s15.8 19.1 20.8 30.8 7.5 24 7.5 37v704c0 13-2.5 25.3-7.5 37s-11.9 21.9-20.8 30.8-19.1 15.8-30.8 20.8-24 7.5-37 7.5z" fill="#fff"/></svg>
