<svg width="24" height="24" fill="none" version="1.1" viewBox="0 0 24 24" xmlns="http://www.w3.org/2000/svg"><path d="m9 0c4.0612 0 7.4941 2.69 8.6143 6.3854 3.6958 1.1205 6.3857 4.5535 6.3857 8.6146 0 4.9705-4.0295 9-9 9-4.0612 0-7.4942-2.6899-8.6143-6.3853-3.6957-1.1206-6.3857-4.5535-6.3857-8.6147 0-4.9706 4.0294-9 9-9zm8.9981 9.1187 0.00192-0.11866c0 4.9307-3.965 8.9353-8.8806 8.9993 1.0913 2.1368 3.315 3.6007 5.8806 3.6007 3.6451 0 6.6-2.9549 6.6-6.6 0-2.5656-1.4639-4.7893-3.6019-5.8813zm-8.9981-6.7187c-3.6451 0-6.6 2.9549-6.6 6.6 0 2.5656 1.4639 4.7893 3.602 5.8813l-0.001956 0.11868c0-4.9304 3.9647-8.9349 8.8799-8.9992-1.0906-2.1369-3.3143-3.6008-5.8799-3.6008z" fill="#fff" stroke-width="1.2"/></svg>
