<svg width="24" height="24" fill="none" viewBox="0 0 24 24" xmlns="http://www.w3.org/2000/svg"><path d="m12.013 2.25c0.7339 0.00846 1.465 0.09326 2.1815 0.25304 0.3127 0.06975 0.5466 0.33047 0.5821 0.64892l0.1702 1.5268c0.077 0.70105 0.6689 1.232 1.3746 1.2328 0.1897 3e-4 0.3773-0.0392 0.5526-0.11675l1.4006-0.61527c0.2913-0.12797 0.6316-0.0582 0.8491 0.17406 1.0122 1.081 1.766 2.3775 2.2048 3.792 0.0946 0.305-0.0143 0.63645-0.2714 0.82592l-1.2414 0.9151c-0.3542 0.2602-0.5633 0.6734-0.5633 1.1129 0 0.4394 0.2091 0.8526 0.564 1.1134l1.2426 0.9154c0.2571 0.1894 0.3661 0.5209 0.2715 0.826-0.4386 1.4142-1.192 2.7106-2.2036 3.7918-0.2173 0.2322-0.5574 0.3022-0.8486 0.1745l-1.4064-0.6161c-0.4023-0.1761-0.8644-0.1503-1.2446 0.0695-0.3802 0.2197-0.6333 0.6072-0.6816 1.0437l-0.169 1.5267c-0.0349 0.3148-0.2638 0.5738-0.5719 0.6471-1.4484 0.3446-2.9575 0.3446-4.406 0-0.30813-0.0733-0.53699-0.3323-0.57185-0.6471l-0.16882-1.5244c-0.04959-0.4357-0.30302-0.822-0.68294-1.041-0.37991-0.219-0.84122-0.2447-1.2422-0.0696l-1.4066 0.6162c-0.29135 0.1277-0.63154 0.0577-0.84879-0.1747-1.0122-1.0824-1.7656-2.3804-2.2036-3.7961-0.09434-0.3049 0.01466-0.6362 0.27164-0.8255l1.2433-0.916c0.35414-0.2602 0.5633-0.6734 0.5633-1.1128 0-0.4395-0.20916-0.8527-0.56376-1.1132l-1.2426-0.91445c-0.25737-0.1894-0.36647-0.52107-0.2718-0.82627 0.43876-1.4144 1.1926-2.7109 2.2048-3.792 0.21747-0.23226 0.55781-0.30203 0.84912-0.17406l1.4004 0.61516c0.40294 0.17684 0.86618 0.15013 1.2482-0.07303 0.38032-0.2206 0.63351-0.60847 0.68239-1.045l0.17008-1.5257c0.03552-0.31861 0.26962-0.57942 0.58256-0.64902 0.71732-0.15952 1.4491-0.24429 2.2014-0.25294zm-0.0125 6.75c-1.6569 0-3 1.3432-3 3 0 1.6568 1.3431 3 3 3 1.6568 0 3-1.3432 3-3 0-1.6569-1.3432-3-3-3z" fill="#fff"/></svg>
