<svg width="24" height="24" fill="none" viewBox="0 0 24 24" xmlns="http://www.w3.org/2000/svg"><path d="m12 2c5.523 0 10 4.478 10 10s-4.477 10-10 10-10-4.478-10-10 4.477-10 10-10zm0 13.5c-0.5523 0-1 0.4477-1 1s0.4477 1 1 1 1-0.4477 1-1-0.4477-1-1-1zm0-8.75c-1.5188 0-2.75 1.2312-2.75 2.75 0 0.41421 0.33579 0.75 0.75 0.75 0.3797 0 0.6935-0.28215 0.7432-0.64823l0.0068-0.10177c0-0.69036 0.5596-1.25 1.25-1.25s1.25 0.55964 1.25 1.25c0 0.5388-0.135 0.8053-0.6449 1.3322l-0.1354 0.1375c-0.8781 0.8781-1.2197 1.4474-1.2197 2.5303 0 0.4142 0.3358 0.75 0.75 0.75s0.75-0.3358 0.75-0.75c0-0.5388 0.135-0.8053 0.6449-1.3322l0.1354-0.1375c0.8781-0.8781 1.2197-1.4474 1.2197-2.5303 0-1.5188-1.2312-2.75-2.75-2.75z" fill="#fff"/></svg>
