<svg width="24" height="24" fill="none" version="1.1" viewBox="0 0 24 24" xmlns="http://www.w3.org/2000/svg"><path d="m2.1644 4.3192c-0.24934-2.3064 1.5576-4.3192 3.8774-4.3192h11.916c2.3198 0 4.1267 2.0128 3.8773 4.3192l-1.8671 17.271c-0.1482 1.3709-1.3055 2.4098-2.6844 2.4098h-10.568c-1.3788 0-2.5362-1.039-2.6844-2.4098zm1.7987-0.72226h16.074c-0.14544-1.0053-1.0112-1.7969-2.0788-1.7969h-11.916c-1.0675 0-1.9334 0.79158-2.0787 1.7969zm7.7884 6.4944c0.1188-0.1776 0.37992-0.1776 0.49872 0l0.80268 1.1998c0.27636 0.41316 0.83532 0.52404 1.2485 0.24756 0.41304-0.27636 0.52392-0.83532 0.24756-1.2485l-0.80256-1.1997c-0.83172-1.2431-2.6593-1.2431-3.4909 0l-0.80261 1.1997c-0.27638 0.41316-0.16553 0.97212 0.24761 1.2485 0.41316 0.27648 0.97212 0.1656 1.2485-0.24756zm-2.2789 3.8623c0.25578-0.42612 0.11753-0.97896-0.3087-1.2347-0.42622-0.25584-0.97906-0.1176-1.2348 0.30864l-0.43696 0.72828c-0.9598 1.5996 0.19248 3.6348 2.058 3.6348h0.95068c0.49704 0 0.9-0.40296 0.9-0.9s-0.40296-0.9-0.9-0.9h-0.95068c-0.46638 0-0.75445-0.5088-0.5145-0.90876zm5.3685-1.235c-0.42636 0.25548-0.56496 0.8082-0.30948 1.2346l0.4368 0.72912c0.23952 0.39996-0.04848 0.9084-0.51468 0.9084h-0.95292c-0.49704 0-0.9 0.40296-0.9 0.9s0.40296 0.9 0.9 0.9h0.95292c1.8647 0 3.0172-2.0338 2.0588-3.6334l-0.4368-0.72924c-0.25548-0.42636-0.8082-0.56496-1.2347-0.30948z" fill="#fff" stroke-width="1.2"/></svg>
