<svg width="20" height="20" fill="none" viewBox="0 0 20 20" xmlns="http://www.w3.org/2000/svg"><path d="m4.5 2c-1.3807 0-2.5 1.1193-2.5 2.5v8c0 1.3807 1.1193 2.5 2.5 2.5h8c1.3807 0 2.5-1.1193 2.5-2.5v-8c0-1.3807-1.1193-2.5-2.5-2.5h-8zm-1.5 10.5v-6.5h11v6.5c0 0.8284-0.6716 1.5-1.5 1.5h-8c-0.82843 0-1.5-0.6716-1.5-1.5zm4.4998 5.5c-1.2095 0-2.2184-0.8589-2.45-2h1.0354c0.20592 0.5826 0.76154 1 1.4146 1h6.5c1.6568 0 3-1.3431 3-3v-6.5c0-0.65311-0.4174-1.2087-1-1.4146v-1.0353c1.1411 0.23163 2 1.2405 2 2.45v6.5c0 2.2091-1.7909 4-4 4h-6.5z" fill="#fff"/></svg>
