<svg width="48" height="48" version="1.1" viewBox="0 0 48 48" xmlns="http://www.w3.org/2000/svg"><path d="m27.452 3.0332c1.4499-1.2061 3.7567-0.25256 3.7567 1.553v38.828c0 1.8056-2.3066 2.7592-3.7567 1.5531l-10.561-8.7847c-1.1217-0.93305-2.576-1.4492-4.0836-1.4492h-6.0513c-3.7316 0-6.7566-2.8031-6.7566-6.2609v-8.9441c0-3.4578 3.025-6.2609 6.7566-6.2609h6.0513c1.5076 0 2.9618-0.51614 4.0836-1.4493z" fill="#e80000" stroke-width="1.2389"/><path d="m34.126 17.281c0.5822-0.5822 1.526-0.5822 2.1082 0l4.6105 4.6105 4.6105-4.6105c0.5822-0.5822 1.526-0.5822 2.1082 0 0.58208 0.58208 0.58208 1.526 0 2.1081l-4.6105 4.6106 4.6105 4.6105c0.58208 0.58208 0.58208 1.526 0 2.1082-0.5822 0.58208-1.526 0.58208-2.1082 0l-4.6105-4.6106-4.6105 4.6106c-0.5822 0.58208-1.526 0.58208-2.1082 0-0.58208-0.5822-0.58208-1.5261 0-2.1082l4.6105-4.6105-4.6105-4.6106c-0.58208-0.58208-0.58208-1.526 0-2.1081z" fill="#e80000" stroke-width="1.1926"/></svg>
