<svg width="24" height="24" fill="none" viewBox="0 0 24 24" xmlns="http://www.w3.org/2000/svg"><path d="m5.25 20.5h13.498c0.4142 0 0.75 0.3358 0.75 0.75 0 0.3797-0.2822 0.6935-0.6483 0.7432l-0.1017 0.0068h-13.498c-0.41421 0-0.75-0.3358-0.75-0.75 0-0.3797 0.28215-0.6935 0.64823-0.7431l0.10177-0.0069h13.498-13.498zm6.6334-18.498 0.1166-0.00673c0.5128 0 0.9355 0.38604 0.9933 0.88338l0.0067 0.11662v12.59l3.2941-3.2928c0.3605-0.3604 0.9277-0.3881 1.32-0.083l0.0942 0.0832c0.3604 0.3605 0.3881 0.9277 0.083 1.32l-0.0832 0.0942-4.9976 4.9966c-0.3603 0.3603-0.9272 0.3881-1.3195 0.0835l-0.0942-0.0831-5.0034-4.9966c-0.39079-0.3903-0.39123-1.0234-9.7e-4 -1.4142 0.36024-0.3607 0.92745-0.3889 1.32-0.0841l0.09426 0.0831 3.2934 3.2882v-12.585c0-0.51284 0.386-0.93551 0.8834-0.99327l0.1166-0.00673-0.1166 0.00673z" fill="#fff"/></svg>
