<svg width="32" height="32" fill="none" version="1.1" viewBox="0 0 32 32" xmlns="http://www.w3.org/2000/svg"><path d="m6 3c0-0.55228 0.44772-1 1-1h18c0.5523 0 1 0.44772 1 1v15.75c0 1.7949-1.4551 3.25-3.25 3.25h-2.75v4c0 2.2091-1.7909 4-4 4s-4-1.7909-4-4v-4h-2.75c-1.7949 0-3.25-1.4551-3.25-3.25zm2 1v10h16v-10h-2v5c0 0.55229-0.4477 1-1 1s-1-0.44771-1-1v-5h-2v3c0 0.55228-0.4477 1-1 1s-1-0.44772-1-1v-3zm16 14.75v-2.75h-16v2.75c0 0.6904 0.55964 1.25 1.25 1.25h3.75c0.5523 0 1 0.4477 1 1v5c0 1.1046 0.8954 2 2 2s2-0.8954 2-2v-5c0-0.5523 0.4477-1 1-1h3.75c0.6904 0 1.25-0.5596 1.25-1.25z" fill="#fff"/></svg>
