<svg width="48" height="48" fill="none" version="1.1" viewBox="0 0 48 48" xmlns="http://www.w3.org/2000/svg"><path d="m18.593 47.363c1.7742 0.42338 3.5919 0.63723 5.4159 0.63723 1.8201-0.0019 3.6338-0.21697 5.4039-0.64083 0.46526-0.11208 0.8848-0.36482 1.2014-0.72388 0.31646-0.35906 0.51459-0.80692 0.56751-1.2826l0.40562-3.6854c0.06852-0.65907 0.3701-1.2721 0.85036-1.7286s1.1077-0.72652 1.7694-0.76156c0.43994-0.01908 0.87832 0.063 1.2815 0.24001l3.3687 1.4773c0.29282 0.13165 0.60999 0.20065 0.93113 0.20269 0.32114 0.0022 0.63915-0.06288 0.93377-0.19069 0.29569-0.12637 0.56151-0.3137 0.78004-0.54963 2.4769-2.6698 4.326-5.8593 5.4123-9.3353 0.14221-0.46118 0.13777-0.95501-0.01272-1.4136-0.15049-0.45854-0.43958-0.859-0.82732-1.1462l-2.9929-2.2081c-0.35654-0.25897-0.64671-0.59847-0.84676-0.99101s-0.30434-0.82696-0.30434-1.2675 0.10428-0.87496 0.30434-1.2675 0.49022-0.73216 0.84676-0.99101l2.9833-2.2033c0.38894-0.28765 0.67875-0.68907 0.82936-1.1488 0.15049-0.45974 0.15421-0.95501 0.01068-1.4169-1.0867-3.4766-2.938-6.6655-5.4183-9.3329-0.3287-0.35126-0.7582-0.59184-1.2293-0.68857-0.47126-0.09674-0.96077-0.04482-1.4012 0.14853l-3.3675 1.4833c-0.34934 0.15745-0.72796 0.23917-1.1111 0.24001-0.69148-0.00108-1.3582-0.25741-1.8722-0.71992-0.5141-0.46238-0.8392-1.0984-0.91312-1.7858l-0.40802-3.6722c-0.052203-0.48197-0.25381-0.93558-0.57663-1.2973-0.32282-0.36171-0.75052-0.61345-1.2235-0.72-1.7608-0.3931-3.5578-0.60185-5.3619-0.62284-1.8169 0.020977-3.6266 0.23012-5.4003 0.62405-0.47246 0.10594-0.89992 0.35685-1.2226 0.7177-0.32282 0.36085-0.52467 0.81357-0.57747 1.2948l-0.40922 3.6746c-0.07668 0.6882-0.40442 1.3239-0.92044 1.7857-0.52719 0.44774-1.1915 0.7018-1.8829 0.72004-0.38138-2.4e-4 -0.75856-0.07956-1.1077-0.23281l-3.3602-1.4833c-0.44198-0.1951-0.93365-0.24773-1.4067-0.15052-0.47318 0.09722-0.9043 0.33941-1.2335 0.69295-2.4773 2.6679-4.3268 5.8557-5.4135 9.3305-0.14349 0.46178-0.13972 0.95681 0.010813 1.4163 0.15052 0.4595 0.44034 0.8608 0.82923 1.1482l2.9869 2.2033c0.35357 0.26101 0.64107 0.60135 0.83947 0.99353 0.19839 0.39218 0.30218 0.8254 0.303 1.265 3.96e-4 0.4403-0.10281 0.87436-0.30127 1.2674-0.19848 0.39302-0.48665 0.73372-0.84119 0.99473l-2.9881 2.2069c-0.38842 0.28717-0.67793 0.68811-0.82842 1.1471-0.15051 0.45902-0.15458 0.95357-0.011629 1.415 1.0843 3.4779 2.9336 6.669 5.4123 9.3389 0.21531 0.23305 0.4769 0.41858 0.76807 0.54483 0.29365 0.12913 0.61095 0.19573 0.93185 0.19573 0.32078 0 0.63807-0.0666 0.93185-0.19573l3.383-1.4845c0.34898-0.15385 0.72628-0.23317 1.1077-0.23281h0.0096c0.68859 8.4e-4 1.3528 0.25501 1.8662 0.71392 0.51339 0.45902 0.84016 1.0907 0.91793 1.775l0.40562 3.6686c0.05292 0.4763 0.25165 0.92477 0.56883 1.2841 0.31718 0.3593 0.73756 0.61203 1.2037 0.72364zm5.4071-15.862c-4.1424 0-7.5004-3.358-7.5004-7.5004s3.358-7.5004 7.5004-7.5004 7.5004 3.358 7.5004 7.5004-3.358 7.5004-7.5004 7.5004z" fill="#fff" stroke-width="1.2001"/></svg>
