<svg viewBox="0 64 1010 896" xmlns="http://www.w3.org/2000/svg"><path d="m156.5 960c-21 0-41-4.25-60-12.75s-35.583-19.833-49.75-34-25.5-30.75-34-49.75-12.75-39-12.75-60v-583c0-21 4.25-41 12.75-60s19.833-35.583 34-49.75c14.167-14.167 30.75-25.5 49.75-34 19-8.4999 39-12.75 60-12.75h195.5c23 1e-4 42.75 3.5834 59.25 10.75 16.5 7.1667 31.417 16.75 44.75 28.75s25.667 25.667 37 41 23 31.167 35 47.5h274.5c20.667 0 40.5 4.167 59.5 12.5s35.667 19.583 50 33.75 25.833 30.583 34.5 49.25 13.167 38.333 13.5 59c15.667 12.333 27.833 27.333 36.5 45 8.67 17.667 13 36.5 13 56.5v8.75c0 2.833-0.33 5.75-1 8.75l-49.5 356.5c-2.667 19-8.667 36.917-18 53.75s-21 31.5-35 44-29.833 22.333-47.5 29.5-36.167 10.75-55.5 10.75zm734-639.5c-3.333-9.667-8-18.417-14-26.25s-13-14.583-21-20.25-16.667-10.083-26-13.25-19.167-4.75-29.5-4.75h-304l-67-89.5c-9-12-20.333-21.417-34-28.25s-28-10.25-43-10.25h-192c-13 0-25.333 2.5-37 7.5s-21.917 11.917-30.75 20.75c-8.8333 8.833-15.75 19.083-20.75 30.75s-7.5 24-7.5 37v576c0 2 0.0833 3.917 0.25 5.75s0.25 3.75 0.25 5.75l80.5-389.5c3-14.667 8.417-28.25 16.25-40.75s17.333-23.25 28.5-32.25 23.667-16.083 37.5-21.25 28.25-7.75 43.25-7.75h611.5 4.25c1.167 0 2.583 0.167 4.25 0.5zm-90 575.5c12 0 23.417-2.083 34.25-6.25s20.5-10 29-17.5 15.5-16.25 21-26.25 9.083-21 10.75-33l49.5-356c0.333-1.667 0.5-3.167 0.5-4.5v-4.5c0-8.667-1.667-16.917-5-24.75s-7.833-14.667-13.5-20.5-12.333-10.417-20-13.75-16-5-25-5h-611.5c-7.667 0-14.917 1.25-21.75 3.75s-13.083 6-18.75 10.5-10.5 9.917-14.5 16.25-6.667 13.167-8 20.5l-92.5 449.5c14.333 7.667 29.333 11.5 45 11.5z" fill="#fff"></path></svg>
