<svg width="902" height="902" version="1.1" viewBox="128 61 902 902" xmlns="http://www.w3.org/2000/svg"><path d="m261.25 963c-13.333 0-25.833-2.5-37.5-7.5s-21.917-11.833-30.75-20.5-15.75-18.833-20.75-30.5-7.5-24.167-7.5-37.5v-710c0-13.333 2.5-25.833 7.5-37.5s11.833-21.833 20.5-30.5c8.667-8.6666 18.833-15.5 30.5-20.5 11.667-4.9999 24.167-7.4999 37.5-7.5 8 1e-4 16 1.0001 24 3 8 2.0001 15.5 5.0001 22.5 9l637 355c15.333 8.667 27.333 20.5 36 35.5s13 31.167 13 48.5c0 17.667-4.25 33.917-12.75 48.75s-20.583 26.583-36.25 35.25l-636.5 355c-7 4-14.5 7-22.5 9s-16 3-24 3zm668-451c0-5.667-1.5-11.083-4.5-16.25s-7-9.083-12-11.75l-636.5-355c-4.667-2.667-9.833-4-15.5-4-8.667 0-16.167 3.167-22.5 9.5s-9.5 13.833-9.5 22.5v710c0 8.667 3.167 16.167 9.5 22.5s13.833 9.5 22.5 9.5c5.667 0 10.833-1.333 15.5-4l636.5-355c5-2.667 9-6.583 12-11.75s4.5-10.583 4.5-16.25z" fill="#fff"/></svg>
