<svg width="1024" height="1024" version="1.1" viewBox="128 0 1024 1024" xmlns="http://www.w3.org/2000/svg"><path d="m1024 392v504c0 17.667-3.333 34.25-10 49.75s-15.833 29.083-27.5 40.75-25.25 20.83-40.75 27.5-32.083 10-49.75 10h-512c-17.667 0-34.25-3.33-49.75-10s-29.083-15.833-40.75-27.5-20.833-25.25-27.5-40.75-10-32.083-10-49.75v-768c0-17.667 3.333-34.25 10-49.75s15.833-29.083 27.5-40.75 25.25-20.833 40.75-27.5c15.5-6.6666 32.083-10 49.75-10h248c17 0 33.333 3.25 49 9.75s29.5 15.75 41.5 27.75l264 264c12 12 21.25 25.833 27.75 41.5s9.75 32 9.75 49zm-64 0v-4c0-1.333-0.167-2.667-0.5-4h-191.5c-17.667 0-34.25-3.333-49.75-10s-29.083-15.833-40.75-27.5-20.833-25.25-27.5-40.75-10-32.083-10-49.75v-191.5c-1.333-0.3333-2.667-0.4999-4-0.5-1.333 1e-4 -2.667 1e-4 -4 0h-248c-9 1e-4 -17.333 1.6667-25 5-7.667 3.3334-14.417 7.9167-20.25 13.75-5.833 5.8334-10.417 12.583-13.75 20.25s-5 16-5 25v768c0 9 1.667 17.417 5 25.25s7.833 14.583 13.5 20.25 12.417 10.167 20.25 13.5 16.25 5 25.25 5h512c9 0 17.333-1.667 25-5s14.417-7.917 20.25-13.75 10.417-12.583 13.75-20.25 5-16 5-25zm-45-72-211-211v147c0 9 1.667 17.417 5 25.25s7.833 14.583 13.5 20.25 12.417 10.167 20.25 13.5 16.25 5 25.25 5z" fill="#fff"/></svg>
