<svg viewBox="0 128 1024 704" xmlns="http://www.w3.org/2000/svg"><path d="m672 128c32.333 0 63.5 4.167 93.5 12.5s58 20.167 84 35.5 49.75 33.75 71.25 55.25 39.917 45.25 55.25 71.25 27.17 54 35.5 84 12.5 61.167 12.5 93.5-4.17 63.5-12.5 93.5-20.167 58-35.5 84-33.75 49.75-55.25 71.25-45.25 39.917-71.25 55.25-54 27.167-84 35.5-61.167 12.5-93.5 12.5h-320c-32.333 0-63.5-4.167-93.5-12.5s-58-20.167-84-35.5-49.75-33.75-71.25-55.25-39.917-45.25-55.25-71.25-27.167-54-35.5-84c-8.3333-30-12.5-61.167-12.5-93.5s4.1667-63.5 12.5-93.5c8.3333-30 20.167-58 35.5-84s33.75-49.75 55.25-71.25 45.25-39.917 71.25-55.25 54-27.167 84-35.5 61.167-12.5 93.5-12.5zm0 640c39.667 0 77-7.583 112-22.75s65.5-35.75 91.5-61.75 46.583-56.5 61.75-91.5 22.75-72.333 22.75-112c0-26.333-3.417-51.75-10.25-76.25s-16.5-47.417-29-68.75-27.583-40.833-45.25-58.5-37.167-32.75-58.5-45.25-44.25-22.167-68.75-29-49.917-10.25-76.25-10.25h-320c-39.667 0-77 7.583-112 22.75s-65.5 35.75-91.5 61.75-46.583 56.5-61.75 91.5c-15.167 35-22.75 72.333-22.75 112 0 40 7.5 77.5 22.5 112.5s35.5 65.5 61.5 91.5 56.5 46.5 91.5 61.5 72.5 22.5 112.5 22.5zm-224-288c0 8.667-3.167 16.167-9.5 22.5s-13.833 9.5-22.5 9.5h-96v96c0 8.667-3.167 16.167-9.5 22.5s-13.833 9.5-22.5 9.5-16.167-3.167-22.5-9.5-9.5-13.833-9.5-22.5v-96h-96c-8.667 0-16.167-3.167-22.5-9.5s-9.5-13.833-9.5-22.5 3.167-16.167 9.5-22.5 13.833-9.5 22.5-9.5h96v-96c0-8.667 3.167-16.167 9.5-22.5s13.833-9.5 22.5-9.5 16.167 3.167 22.5 9.5 9.5 13.833 9.5 22.5v96h96c8.667 0 16.167 3.167 22.5 9.5s9.5 13.833 9.5 22.5zm384-96c0 9-1.667 17.333-5 25s-7.917 14.417-13.75 20.25-12.583 10.417-20.25 13.75-16 5-25 5-17.417-1.667-25.25-5-14.583-7.833-20.25-13.5-10.167-12.417-13.5-20.25-5-16.25-5-25.25 1.667-17.333 5-25 7.917-14.417 13.75-20.25 12.583-10.417 20.25-13.75 16-5 25-5c8.667 0 16.917 1.667 24.75 5s14.667 7.917 20.5 13.75 10.417 12.667 13.75 20.5 5 16.083 5 24.75zm-128 192c0 9-1.667 17.333-5 25s-7.917 14.417-13.75 20.25-12.583 10.417-20.25 13.75-16 5-25 5-17.417-1.667-25.25-5-14.583-7.833-20.25-13.5-10.167-12.417-13.5-20.25-5-16.25-5-25.25 1.667-17.333 5-25 7.917-14.417 13.75-20.25 12.583-10.417 20.25-13.75 16-5 25-5c8.667 0 16.917 1.667 24.75 5s14.667 7.917 20.5 13.75 10.417 12.667 13.75 20.5 5 16.083 5 24.75z" fill="#fff"></path></svg>
