<svg viewBox="0 0 1024 1024" xmlns="http://www.w3.org/2000/svg"><path d="m1024 512c0 47.333-6.08 92.75-18.25 136.25-12.167 43.5-29.333 84.25-51.5 122.25s-48.833 72.583-80 103.75-65.75 57.833-103.75 80-78.833 39.333-122.5 51.5c-43.667 12.17-89 18.25-136 18.25-47.333 0-92.75-6.08-136.25-18.25-43.5-12.167-84.25-29.333-122.25-51.5s-72.583-48.833-103.75-80-57.833-65.75-80-103.75-39.333-78.833-51.5-122.5c-12.167-43.667-18.25-89-18.25-136s6.0833-92.333 18.25-136c12.167-43.667 29.333-84.5 51.5-122.5s48.833-72.583 80-103.75 65.75-57.833 103.75-80c38-22.167 78.833-39.333 122.5-51.5 43.667-12.167 89-18.25 136-18.25s92.333 6.0834 136 18.25c43.667 12.167 84.5 29.333 122.5 51.5 38 22.167 72.583 48.833 103.75 80s57.833 65.75 80 103.75 39.333 78.833 51.5 122.5c12.17 43.667 18.25 89 18.25 136zm-684.5-192h345c-2.667-13-6.5-28.333-11.5-46s-11.167-36-18.5-55-15.75-37.75-25.25-56.25-20.167-35.083-32-49.75c-11.833-14.667-24.833-26.5-39-35.5-14.167-8.9999-29.583-13.5-46.25-13.5-16.667 1e-4 -32.083 4.5001-46.25 13.5-14.167 9.0001-27.167 20.833-39 35.5-11.833 14.667-22.5 31.25-32 49.75s-17.917 37.25-25.25 56.25-13.5 37.333-18.5 55-8.833 33-11.5 46zm-232.5 0h167c7.667-41.333 18.75-81.667 33.25-121s33.917-76.167 58.25-110.5c-28 8.6667-54.833 20.667-80.5 36s-49.583 33.167-71.75 53.5-42.333 42.5-60.5 66.5-33.417 49.167-45.75 75.5zm551.5-231.5c24.333 34.333 43.75 71.167 58.25 110.5s25.583 79.667 33.25 121h167c-12.667-26.333-28-51.5-46-75.5s-38.083-46.167-60.25-66.5-46.083-38.167-71.75-53.5-52.5-27.333-80.5-36zm-394.5 551.5c-3-21.333-5.083-42.583-6.25-63.75s-1.75-42.583-1.75-64.25 0.583-43.083 1.75-64.25 3.25-42.417 6.25-63.75h-181.5c-6 21-10.583 42.083-13.75 63.25s-4.75 42.75-4.75 64.75 1.5833 43.583 4.75 64.75 7.75 42.25 13.75 63.25zm432 0c3-21.333 5.083-42.583 6.25-63.75s1.75-42.583 1.75-64.25-0.583-43.083-1.75-64.25-3.25-42.417-6.25-63.75h-368c-3 21.333-5.083 42.583-6.25 63.75s-1.75 42.583-1.75 64.25 0.583 43.083 1.75 64.25 3.25 42.417 6.25 63.75zm245.5-256h-181.5c3 21.333 5.083 42.583 6.25 63.75s1.75 42.583 1.75 64.25-0.583 43.083-1.75 64.25-3.25 42.417-6.25 63.75h181.5c6-21 10.583-42.083 13.75-63.25s4.75-42.75 4.75-64.75-1.583-43.583-4.75-64.75-7.75-42.25-13.75-63.25zm-576 551.5c-24.333-34.333-43.75-71.167-58.25-110.5s-25.583-79.667-33.25-121h-167c12.333 26 27.5 51.083 45.5 75.25s38.167 46.333 60.5 66.5 46.333 38 72 53.5 52.5 27.583 80.5 36.25zm319-231.5h-345c2.667 13 6.5 28.333 11.5 46s11.167 36 18.5 55 15.75 37.75 25.25 56.25 20.167 35.083 32 49.75 24.833 26.5 39 35.5 29.583 13.5 46.25 13.5 32.083-4.5 46.25-13.5 27.167-20.833 39-35.5 22.5-31.25 32-49.75 17.917-37.25 25.25-56.25 13.5-37.333 18.5-55 8.833-33 11.5-46zm232.5 0h-167c-7.667 41.333-18.75 81.667-33.25 121s-33.917 76.167-58.25 110.5c28-8.667 54.833-20.667 80.5-36s49.583-33.167 71.75-53.5 42.25-42.5 60.25-66.5 33.333-49.167 46-75.5z" fill="#fff"></path></svg>
