<svg viewBox="64 64 896 832" xmlns="http://www.w3.org/2000/svg"><path d="m128 256c-9 0-17.417-1.667-25.25-5-7.8333-3.333-14.583-7.833-20.25-13.5s-10.167-12.417-13.5-20.25-5-16.25-5-25.25v-64c0-9 1.6667-17.333 5-25 3.3333-7.6666 7.9167-14.417 13.75-20.25 5.8333-5.8333 12.583-10.417 20.25-13.75 7.667-3.3333 16-4.9999 25-5h64c8.667 1e-4 16.917 1.6667 24.75 5 7.833 3.3334 14.667 7.9167 20.5 13.75 5.833 5.8334 10.417 12.667 13.75 20.5 3.333 7.833 5 16.083 5 24.75v64c0 9-1.667 17.333-5 25s-7.917 14.417-13.75 20.25-12.583 10.417-20.25 13.75-16 5-25 5zm0-128v64h64v-64zm224 64c-8.667 0-16.167-3.167-22.5-9.5s-9.5-13.833-9.5-22.5 3.167-16.167 9.5-22.5 13.833-9.5 22.5-9.5h576c8.667 0 16.167 3.167 22.5 9.5s9.5 13.833 9.5 22.5-3.167 16.167-9.5 22.5-13.833 9.5-22.5 9.5zm-224 384c-9 0-17.417-1.667-25.25-5-7.8333-3.333-14.583-7.833-20.25-13.5s-10.167-12.417-13.5-20.25-5-16.25-5-25.25v-64c0-9 1.6667-17.333 5-25s7.9167-14.417 13.75-20.25 12.583-10.417 20.25-13.75c7.667-3.333 16-5 25-5h64c8.667 0 16.917 1.667 24.75 5s14.667 7.917 20.5 13.75 10.417 12.667 13.75 20.5 5 16.083 5 24.75v64c0 9-1.667 17.333-5 25s-7.917 14.417-13.75 20.25-12.583 10.417-20.25 13.75-16 5-25 5zm0-128v64h64v-64zm224 64c-8.667 0-16.167-3.167-22.5-9.5s-9.5-13.833-9.5-22.5 3.167-16.167 9.5-22.5 13.833-9.5 22.5-9.5h576c8.667 0 16.167 3.167 22.5 9.5s9.5 13.833 9.5 22.5-3.167 16.167-9.5 22.5-13.833 9.5-22.5 9.5zm-224 384c-9 0-17.417-1.667-25.25-5-7.8333-3.333-14.583-7.833-20.25-13.5s-10.167-12.417-13.5-20.25-5-16.25-5-25.25v-64c0-9 1.6667-17.333 5-25s7.9167-14.417 13.75-20.25 12.583-10.417 20.25-13.75c7.667-3.333 16-5 25-5h64c8.667 0 16.917 1.667 24.75 5s14.667 7.917 20.5 13.75 10.417 12.667 13.75 20.5 5 16.083 5 24.75v64c0 9-1.667 17.333-5 25s-7.917 14.417-13.75 20.25-12.583 10.417-20.25 13.75-16 5-25 5zm0-128v64h64v-64zm224 64c-8.667 0-16.167-3.167-22.5-9.5s-9.5-13.833-9.5-22.5 3.167-16.167 9.5-22.5 13.833-9.5 22.5-9.5h576c8.667 0 16.167 3.167 22.5 9.5s9.5 13.833 9.5 22.5-3.167 16.167-9.5 22.5-13.833 9.5-22.5 9.5z" fill="#fff"></path></svg>
