<svg viewBox="0 64 1024 896" xmlns="http://www.w3.org/2000/svg"><path d="m188 960c-25 0-48.917-5.083-71.75-15.25-22.833-10.167-42.833-23.833-60-41s-30.833-37.167-41-60c-10.167-22.833-15.25-46.75-15.25-71.75v-520c0-25 5.0833-48.917 15.25-71.75 10.167-22.833 23.833-42.833 41-60s37.167-30.833 60-41c22.833-10.167 46.75-15.25 71.75-15.25h648c25 1e-4 48.917 5.0834 71.75 15.25 22.833 10.167 42.833 23.833 60 41s30.833 37.167 41 60c10.17 22.833 15.25 46.75 15.25 71.75v520c0 25-5.08 48.917-15.25 71.75-10.167 22.833-23.833 42.833-41 60s-37.167 30.833-60 41-46.75 15.25-71.75 15.25zm646.5-64c16.667 0 32.583-3.417 47.75-10.25s28.5-16 40-27.5 20.667-24.833 27.5-40 10.25-31.083 10.25-47.75v-517c0-16.667-3.417-32.583-10.25-47.75s-16-28.5-27.5-40-24.833-20.667-40-27.5-31.083-10.25-47.75-10.25h-645c-16.667 0-32.583 3.417-47.75 10.25s-28.5 16-40 27.5-20.667 24.833-27.5 40-10.25 31.083-10.25 47.75v517c0 16.667 3.4167 32.583 10.25 47.75s16 28.5 27.5 40 24.833 20.667 40 27.5 31.083 10.25 47.75 10.25zm-514.5-241v-286c0-11 2.083-21.417 6.25-31.25s9.833-18.333 17-25.5 15.667-12.917 25.5-17.25 20.25-6.5 31.25-6.5c13.333 0 26.167 3.333 38.5 10l262.5 143.5c12.667 7 22.75 16.75 30.25 29.25s11.25 26.083 11.25 40.75-3.75 28.25-11.25 40.75-17.583 22.25-30.25 29.25l-262.5 143.5c-11.667 6.333-24.5 9.5-38.5 9.5-11 0-21.417-2.083-31.25-6.25s-18.333-9.833-25.5-17-12.833-15.667-17-25.5-6.25-20.25-6.25-31.25zm358.5-143c0-3.667-0.75-6.417-2.25-8.25s-3.583-3.75-6.25-5.75-8.583-5.583-17.75-10.75-20.167-11.25-33-18.25-27.083-14.75-42.75-23.25-31.5-17.083-47.5-25.75-31.583-17-46.75-25-28.667-15.167-40.5-21.5-21.583-11.333-29.25-15-11.833-5.5-12.5-5.5c-4.667 0-8.5 1.5-11.5 4.5s-4.5 6.833-4.5 11.5v286c0 4.667 1.5 8.5 4.5 11.5s6.833 4.5 11.5 4.5c0.667 0 4.833-1.833 12.5-5.5s17.417-8.667 29.25-15 25.333-13.5 40.5-21.5 30.75-16.333 46.75-25 31.833-17.25 47.5-25.75 29.917-16.25 42.75-23.25 23.833-13.083 33-18.25 15.083-8.75 17.75-10.75 4.75-3.917 6.25-5.75 2.25-4.583 2.25-8.25z" fill="#fff"></path></svg>
